<svg width="20" height="20" viewBox="0 0 20 20" fill="none" xmlns="http://www.w3.org/2000/svg">
<path d="M10 19C14.9706 19 19 14.9706 19 10C19 5.02944 14.9706 1 10 1C5.02944 1 1 5.02944 1 10C1 14.9706 5.02944 19 10 19Z" fill="#9EA8B3"/>
<path d="M13.5033 12.6021L13.902 9.99995H11.4061V8.31158C11.4061 7.60029 11.7542 6.90545 12.873 6.90545H14.0083V4.69057C14.0083 4.69057 12.9781 4.51465 11.9934 4.51465C9.93797 4.51465 8.59386 5.76004 8.59386 8.01669V9.99995H6.30811V12.6021H8.59386V18.8911C9.05202 18.9633 9.52158 19 9.99999 19C10.4784 19 10.948 18.962 11.4061 18.8911V12.6021H13.5033Z" fill="#2A2A2A"/>
</svg>
