<svg width="18" height="18" viewBox="0 0 18 18" fill="none" xmlns="http://www.w3.org/2000/svg">
<path d="M9.00084 0C6.55657 0 6.24982 0.0106877 5.28981 0.0543752C4.33167 0.0982502 3.67766 0.249938 3.10541 0.4725C2.51346 0.702375 2.01133 1.00988 1.51108 1.51031C1.01045 2.01056 0.702945 2.51269 0.472317 3.10444C0.24919 3.67687 0.0973134 4.33106 0.054188 5.28881C0.01125 6.24881 0 6.55575 0 9C0 11.4443 0.0108753 11.7501 0.0543757 12.7101C0.0984387 13.6682 0.250128 14.3222 0.472505 14.8944C0.70257 15.4864 1.01007 15.9885 1.51052 16.4888C2.01058 16.9894 2.51271 17.2976 3.10428 17.5275C3.67691 17.7501 4.33111 17.9017 5.28906 17.9456C6.24907 17.9893 6.55563 18 8.99972 18C11.4442 18 11.75 17.9893 12.71 17.9456C13.6681 17.9017 14.3229 17.7501 14.8955 17.5275C15.4873 17.2976 15.9887 16.9894 16.4887 16.4888C16.9894 15.9885 17.2969 15.4864 17.5275 14.8946C17.7487 14.3222 17.9006 13.668 17.9456 12.7103C17.9887 11.7503 18 11.4443 18 9C18 6.55575 17.9887 6.249 17.9456 5.289C17.9006 4.33088 17.7487 3.67687 17.5275 3.10462C17.2969 2.51269 16.9894 2.01056 16.4887 1.51031C15.9881 1.00969 15.4875 0.702188 14.895 0.4725C14.3212 0.249938 13.6668 0.0982502 12.7087 0.0543752C11.7487 0.0106877 11.4431 0 8.99803 0H9.00084ZM8.19346 1.62187C8.43309 1.6215 8.70047 1.62187 9.00084 1.62187C11.4039 1.62187 11.6887 1.6305 12.6376 1.67363C13.5151 1.71375 13.9914 1.86038 14.3086 1.98356C14.7287 2.14669 15.0281 2.34169 15.3429 2.65669C15.6579 2.97169 15.8529 3.27169 16.0164 3.69169C16.1396 4.00856 16.2864 4.48481 16.3264 5.36231C16.3695 6.31106 16.3789 6.59606 16.3789 8.99794C16.3789 11.3998 16.3695 11.6848 16.3264 12.6336C16.2862 13.5111 16.1396 13.9873 16.0164 14.3042C15.8533 14.7242 15.6579 15.0233 15.3429 15.3381C15.0279 15.6531 14.7288 15.8481 14.3086 16.0112C13.9918 16.1349 13.5151 16.2812 12.6376 16.3213C11.6889 16.3644 11.4039 16.3738 9.00084 16.3738C6.59763 16.3738 6.31282 16.3644 5.36406 16.3213C4.48655 16.2808 4.01029 16.1342 3.69285 16.011C3.27285 15.8479 2.97284 15.6529 2.65784 15.3379C2.34284 15.0229 2.14783 14.7236 1.98433 14.3034C1.86114 13.9866 1.71433 13.5103 1.67439 12.6328C1.63127 11.6841 1.62264 11.3991 1.62264 8.99569C1.62264 6.59231 1.63127 6.30881 1.67439 5.36006C1.71452 4.48256 1.86114 4.00631 1.98433 3.68906C2.14746 3.26906 2.34284 2.96906 2.65784 2.65406C2.97284 2.33906 3.27285 2.14406 3.69285 1.98056C4.0101 1.85681 4.48655 1.71056 5.36406 1.67025C6.19431 1.63275 6.51607 1.6215 8.19346 1.61963V1.62187ZM13.805 3.11625C13.2088 3.11625 12.725 3.59944 12.725 4.19587C12.725 4.79212 13.2088 5.27588 13.805 5.27588C14.4013 5.27588 14.885 4.79212 14.885 4.19587C14.885 3.59962 14.4013 3.11588 13.805 3.11588V3.11625ZM9.00084 4.37812C6.44838 4.37812 4.37892 6.44756 4.37892 9C4.37892 11.5524 6.44838 13.6209 9.00084 13.6209C11.5533 13.6209 13.622 11.5524 13.622 9C13.622 6.44756 11.5531 4.37812 9.00066 4.37812H9.00084ZM9.00084 6C10.6576 6 12.0009 7.34306 12.0009 9C12.0009 10.6568 10.6576 12 9.00084 12C7.34389 12 6.00081 10.6568 6.00081 9C6.00081 7.34306 7.34389 6 9.00084 6V6Z" fill="#9EA8B3"/>
</svg>
