<svg width="18" height="14" viewBox="0 0 18 14" fill="none" xmlns="http://www.w3.org/2000/svg">
<path fill-rule="evenodd" clip-rule="evenodd" d="M1.56424 2.35337L9 6.63457L16.4358 2.35337C16.27 1.85744 15.8017 1.5 15.25 1.5H2.75C2.19828 1.5 1.73005 1.85744 1.56424 2.35337ZM16.5 4.04725L9.37422 8.14997C9.14257 8.28334 8.85743 8.28334 8.62578 8.14997L1.5 4.04725V11.25C1.5 11.9404 2.05964 12.5 2.75 12.5H15.25C15.9404 12.5 16.5 11.9404 16.5 11.25V4.04725ZM0 2.75C0 1.23122 1.23122 0 2.75 0H15.25C16.7688 0 18 1.23122 18 2.75V11.25C18 12.7688 16.7688 14 15.25 14H2.75C1.23122 14 0 12.7688 0 11.25V2.75Z" fill="#F5F7F9"/>
</svg>
