<svg width="18" height="18" viewBox="0 0 18 18" fill="none" xmlns="http://www.w3.org/2000/svg">
<path fill-rule="evenodd" clip-rule="evenodd" d="M0 4.37465C0 1.9586 1.9586 0 4.37465 0C4.8139 0 5.23515 0.174488 5.54574 0.485079L5.55111 0.490451L5.64743 0.589004C5.70854 0.651577 5.79582 0.741069 5.9007 0.848936C6.11033 1.06455 6.39079 1.35412 6.67323 1.64912C6.95493 1.94334 7.2417 2.24617 7.46268 2.48721C7.57247 2.60696 7.67095 2.71681 7.74584 2.80499C7.78261 2.84827 7.82001 2.89373 7.85211 2.9364C7.86788 2.95737 7.88824 2.98542 7.90843 3.01714L7.90919 3.01834C7.92177 3.03807 7.96819 3.11091 8.00014 3.20922C8.11434 3.5607 8.11434 3.9393 8.00014 4.29078C7.94675 4.4551 7.84394 4.58854 7.80567 4.63821L7.80434 4.63995C7.7463 4.7153 7.67697 4.79537 7.60725 4.87257C7.46709 5.02778 7.28767 5.21274 7.11008 5.39505L7.08277 5.42307C6.71393 5.80168 6.37185 6.15281 6.20973 6.36836C5.96807 6.68967 5.91682 7.22228 6.03295 7.54405C6.03295 7.54405 6.03314 7.54446 6.03404 7.54659C6.03876 7.55776 6.23021 7.95685 6.27133 8.04531C6.31523 8.13975 6.20258 7.90974 6.27133 8.04531C6.41089 8.32054 6.5805 8.63084 6.7381 8.87197C7.46631 9.98609 8.01376 10.518 9.13409 11.2659C9.42469 11.4599 9.80046 11.6644 10.1337 11.8307C10.298 11.9127 10.4463 11.9826 10.5611 12.0343C10.6697 12.0832 10.7269 12.1061 10.74 12.1113C10.7423 12.1122 10.7428 12.1125 10.7428 12.1125C11.0371 12.209 11.3568 12.1928 11.6398 12.0671C11.7953 11.998 12.2029 11.7375 12.6721 11.4299C12.7073 11.4068 12.7425 11.3837 12.7776 11.3607C12.9574 11.2427 13.1331 11.1274 13.2772 11.036C13.3631 10.9815 13.446 10.9302 13.5167 10.8895C13.5518 10.8694 13.5911 10.8476 13.6307 10.828C13.6566 10.8152 13.7343 10.7767 13.829 10.7532C14.1055 10.6847 14.3945 10.6847 14.671 10.7532C14.7946 10.7839 14.9127 10.8477 14.9544 10.8703C14.9563 10.8713 14.9596 10.8731 14.9596 10.8731C15.0277 10.9098 15.106 10.9554 15.1866 11.0039C15.3492 11.1017 15.5478 11.2273 15.7456 11.3546C16.1419 11.6099 16.5553 11.8855 16.7123 11.9901C17.5165 12.5263 18 13.4292 18 14.3957C18 16.3863 16.3863 18 14.3957 18H11.9156C10.7009 18 9.50398 17.7074 8.42625 17.147C5.18358 15.4608 2.5392 12.8164 0.853012 9.57375C0.292589 8.49602 0 7.29915 0 6.08441V4.37465ZM4.48345 1.54414C4.45433 1.51585 4.41531 1.5 4.37465 1.5C2.78703 1.5 1.5 2.78703 1.5 4.37465V6.08441C1.5 7.05823 1.73456 8.01773 2.18384 8.88173C3.7278 11.8509 6.14912 14.2722 9.11828 15.8162C9.98227 16.2654 10.9418 16.5 11.9156 16.5H14.3957C15.5579 16.5 16.5 15.5579 16.5 14.3957C16.5 13.9307 16.2676 13.4965 15.8807 13.2385C15.7237 13.1339 15.319 12.8641 14.9334 12.6157C14.7399 12.4911 14.5564 12.3752 14.4135 12.2893C14.3508 12.2516 14.3008 12.2226 14.2639 12.2022C14.2572 12.2019 14.2505 12.2018 14.2438 12.2019C14.2031 12.2259 14.1488 12.2594 14.0809 12.3025C13.9473 12.3873 13.7835 12.4948 13.6033 12.613C13.5676 12.6364 13.5313 12.6602 13.4944 12.6844C13.0866 12.9517 12.5462 13.3058 12.2488 13.4379C11.626 13.7146 10.9228 13.7501 10.2753 13.5378C10.1352 13.4918 9.80554 13.3434 9.4639 13.1729C9.10604 12.9943 8.66708 12.7577 8.30129 12.5135C7.02626 11.6623 6.33002 10.9893 5.48252 9.69265C5.09602 9.10133 4.69178 8.24655 4.62202 8.05326C4.34788 7.29368 4.44154 6.22381 5.01095 5.46673C5.23356 5.17076 5.63483 4.75933 5.96267 4.42319C5.98744 4.39779 6.0118 4.37282 6.03562 4.34837C6.21718 4.16198 6.37622 3.99768 6.49399 3.86726C6.53252 3.82459 6.5627 3.78986 6.58547 3.76251C6.58558 3.76044 6.58565 3.75837 6.58571 3.75631C6.52999 3.69154 6.45257 3.6051 6.35703 3.50088C6.14721 3.27203 5.8694 2.97853 5.58977 2.68648C5.3109 2.39522 5.03331 2.1086 4.82523 1.89458C4.72125 1.78763 4.63475 1.69895 4.5743 1.63705L4.48345 1.54414Z" fill="#F5F7F9"/>
</svg>
