<svg width="20" height="20" viewBox="0 0 20 20" fill="none" xmlns="http://www.w3.org/2000/svg">
<path d="M18.6236 5.96773C18.4162 5.19279 17.8072 4.5838 17.0322 4.37636C15.6291 4 9.99997 4 9.99997 4C9.99997 4 4.37092 4 2.96773 4.37636C2.19279 4.5838 1.5838 5.19279 1.37636 5.96773C1 7.37092 1 10.3003 1 10.3003C1 10.3003 1 13.2297 1.37636 14.6329C1.5838 15.4078 2.19279 16.0168 2.96773 16.2242C4.37092 16.6006 9.99997 16.6006 9.99997 16.6006C9.99997 16.6006 15.6291 16.6006 17.0322 16.2242C17.8072 16.0168 18.4162 15.4078 18.6236 14.6329C19 13.2297 19 10.3003 19 10.3003C19 10.3003 18.9985 7.37092 18.6236 5.96773Z" fill="#840000"/>
<path d="M8.19824 13.0002L12.8746 10.3005L8.19824 7.60083V13.0002Z" fill="#0A0101"/>
</svg>
