<svg width="120" height="120" viewBox="0 0 120 120" fill="none" xmlns="http://www.w3.org/2000/svg">
<rect width="120" height="120" rx="60" fill="#840000"/>
<path d="M55.4182 28.8744C54.2593 28.9065 53.0789 28.8458 52.0334 28.3159C50.1357 27.3565 50.1975 24.5285 51.8942 23.3211C52.8259 25.1742 54.0661 27.3003 55.4182 28.8744ZM74.9194 39.0989C75.2158 39.7046 75.5177 40.3633 75.8397 40.9565C76.9146 42.9408 77.849 44.7911 78.6725 46.9509C79.6922 49.6229 80.4851 52.785 81.3244 55.5251C82.2072 58.4093 83.0949 61.2882 83.9969 64.1673C84.281 65.074 84.6059 65.9844 84.7513 66.9272C84.9012 67.8991 84.8232 68.9576 84.1457 69.7241C83.292 70.6891 82.0045 70.5394 80.8445 70.3514C79.8932 70.1972 78.266 70.1471 80.3185 71.0041C81.3967 71.4554 82.8729 71.911 83.9864 71.6687C87.319 70.9437 85.6662 65.8293 85.161 63.5295C84.1249 58.8221 81.5539 52.0128 79.5911 47.3277C78.5736 44.8981 77.4741 42.4133 76.0872 40.155C75.8184 39.6703 75.4738 39.254 75.1916 38.781C75.0165 38.4868 74.7021 38.7333 74.9194 39.0989ZM49.3218 85.4963C50.133 84.7458 51.6124 84.1952 52.6849 84.6366C52.9191 84.8444 53.1429 85.0641 53.3657 85.2583C55.2174 86.8731 57.3937 88.0883 59.7326 88.8339C62.9939 89.8733 66.5147 89.9337 69.8142 89.0308C71.5109 88.5665 74.1779 87.4298 75.6652 86.2404C75.8084 86.1571 75.7606 85.9701 75.5098 86.0385C73.8451 86.4344 72.882 86.9403 71.0917 86.6607C69.2777 86.2061 64.9263 83.9228 65.4393 81.9152C65.6127 81.2372 66.17 80.7411 66.5471 80.1758C67.2767 79.0813 67.5367 77.7462 67.3414 76.4568C67.3133 76.2492 67.0943 76.1554 67.0702 76.4542C66.719 80.7987 61.4987 82.2381 57.8905 82.6718C56.025 82.8961 54.1431 82.9902 52.2892 83.307C51.0567 83.5179 49.0121 83.8024 48.2752 85.0246C47.9021 85.6437 47.7718 86.2391 48.3565 86.8347C48.4789 86.9509 48.5975 86.9357 48.5631 86.8116C48.4256 86.3177 49.0217 85.7742 49.3218 85.4963ZM68.1833 75.1166C67.8566 75.1852 67.8851 75.3563 68.1883 75.417C68.923 75.5692 68.5722 76.9766 68.4834 77.4751C68.1754 79.2144 68.8309 80.7512 70.111 81.9457C71.3548 83.1055 75.6507 84.6676 77.074 83.8637C77.1492 83.8211 77.3742 83.6616 77.1374 83.6093C73.0644 82.7068 69.2003 81.7867 69.3637 77.0298C69.399 76.0082 69.3338 74.8914 68.1833 75.1166ZM69.2845 37.0915C69.2104 37.0656 69.1519 37.1326 69.1446 37.1983C69.1115 37.5116 71.0209 40.2058 71.1787 40.416C71.246 40.5061 71.3868 40.4301 71.3324 40.3261C71.1939 40.0601 69.6134 37.2069 69.2845 37.0915ZM71.5277 37.2282C71.4874 37.2062 71.4436 37.2418 71.4526 37.2855C71.5192 37.5977 73.3967 41.2355 73.6559 41.8267C73.7374 42.0117 74.0027 41.8733 73.9663 41.6951C73.7929 40.8508 72.2883 37.6366 71.5277 37.2282ZM86.4469 79.6283C84.9354 81.5263 83.1316 82.489 80.721 81.596C79.1607 81.0177 77.9328 79.8041 76.8236 78.6046C74.5855 76.1839 70.9777 72.4297 69.0273 70.0807C68.6204 69.5504 68.292 68.9614 68.0642 68.3069C67.53 66.7685 67.649 65.1245 67.9632 63.5537C68.4632 61.0538 69.1525 58.5885 69.7756 56.1134C70.2329 54.8851 70.2812 51.8895 72.2153 52.2017C72.7463 52.2872 73.0942 52.6185 73.3766 53.0179C75.2925 57.4593 75.5284 62.6066 75.9645 67.38C75.9796 67.5707 76.1311 67.5999 76.1355 67.4553C76.2642 63.8338 76.7636 61.3479 75.9504 57.5869C75.2342 54.2737 73.7591 51.277 72.0923 48.3519C71.3745 47.0915 70.642 45.8474 69.949 44.5725C69.5016 42.4724 68.7496 40.5803 67.7897 38.6613C67.2634 37.6276 68.0548 37.0526 69.0644 36.7C70.3222 36.3694 71.4273 35.7147 72.5722 35.1248C73.0565 34.8515 72.7844 34.5184 72.3448 34.7351C70.4574 35.7248 68.0311 36.3063 66.6078 34.393C66.1801 33.8183 65.8085 33.1833 65.4757 32.5488C64.7871 31.2361 64.7983 30.6485 65.1648 29.8222C65.5965 28.9933 65.3411 28.0123 64.5863 27.465C66.6032 27.0922 66.7626 26.7987 67.1259 26.4894C67.2802 26.3459 67.1209 26.0539 66.9154 26.1264C65.3966 26.6631 64.433 27.2677 62.637 26.6895C62.9742 26.015 63.2886 25.5102 63.6389 24.8858C63.8862 24.4477 63.53 24.2704 63.1893 24.7228C62.7896 25.2525 62.4305 25.9285 62.2395 26.5601C61.4426 26.3037 60.5608 26.0921 60.2039 26.965C60.1294 27.1473 60.4359 27.2768 60.5222 27.0995C60.7507 26.6271 62.6874 27.2699 63.1112 27.3587C62.7637 27.906 62.3395 28.4948 62.0247 29.0455C61.9523 29.1725 62.1279 29.3177 62.2312 29.2053C62.5686 28.8401 62.8705 28.4438 63.1673 28.0448C63.549 27.5325 63.6159 27.0973 64.0901 27.7333C64.3657 28.1017 64.6597 28.5422 64.7125 29.0067C64.8881 30.5601 62.8856 30.4386 61.8271 30.4033C61.4904 30.3204 61.1609 30.1985 60.8454 30.0326C60.5957 29.7046 60.3442 29.3779 60.0941 29.0506C59.7012 28.4438 59.3083 27.8368 58.9155 27.23C58.6162 26.7681 58.3198 26.3059 58.0225 25.8437C57.8462 25.5697 57.6581 25.3307 57.6693 24.9864C57.6794 24.6832 57.8197 24.4084 57.9984 24.1704C58.5837 23.3914 59.4872 22.7666 60.2905 22.2345C60.7535 21.9273 62.3362 20.9308 62.7504 20.7722C62.8749 20.7238 62.8284 20.5298 62.6936 20.567C61.5588 20.8807 60.4924 21.3886 59.4997 22.0218C58.6438 22.568 57.5818 23.2475 57.1979 24.2383C56.6018 25.7767 58.9192 27.9668 59.7746 29.338C58.8378 29.5027 57.8467 29.2378 57.117 28.6237C56.4497 27.0821 54.591 24.2992 55.5131 22.7261C56.0906 21.7412 59.0764 19.4786 60.1232 18.9302C60.2521 18.8628 60.1388 18.6844 60.0121 18.7391C58.3525 19.4551 56.841 20.4336 55.4614 21.5967C55.0652 21.9302 54.6397 22.2852 54.4147 22.7644C53.9488 23.7598 54.6763 24.8071 55.1281 25.6624C56.9408 29.0943 53.1447 23.7587 52.8476 22.9707C52.3842 21.7373 52.6496 21.159 53.6391 20.1019C54.3553 19.3369 55.2673 18.7716 56.1283 18.1867C56.209 18.1316 56.1388 18.0073 56.0513 18.0545C55.6096 18.2891 55.1746 18.5372 54.7565 18.8094C54.7594 18.7914 54.7548 18.7733 54.7519 18.756C55.443 18.1951 56.2241 17.7436 57.0644 17.4354C57.2091 17.3818 57.1396 17.112 56.9813 17.1575C55.1365 17.6839 54.1448 17.7322 52.8437 19.3531C52.8123 17.6456 54.7627 16.7644 56.0956 16.1581C58.8238 14.9179 63.7027 14.0248 66.5377 15.6985C68.7395 16.9995 69.3854 21.058 70.7021 23.541C71.2414 24.5567 71.7858 25.5701 72.3297 26.5832C73.4029 28.5769 74.4506 30.5151 75.5288 32.5128C76.5948 34.4892 77.6548 36.4696 78.7275 38.4425C79.2813 39.4605 79.8309 40.4813 80.3792 41.5026C81.4596 43.5155 82.4131 45.6387 83.5222 47.6111C85.5381 51.1955 87.6255 54.984 89.1341 58.8124C90.6012 62.9638 91.5262 66.8828 89.0812 70.8424C86.3502 75.268 82.8373 76.3399 78.6168 73.3977C74.8571 70.7747 73.0129 66.7934 72.2203 62.3913C72.2045 62.3045 72.0761 62.3423 72.089 62.4271C73.0561 68.652 73.1867 72.4269 78.6611 76.8689C82.72 80.1622 86.0007 77.6706 88.7743 74.2097C89.7003 73.1611 91.2675 73.6541 91.1624 75.052C91.1006 75.6215 90.9844 76.1978 90.902 76.7503C90.6904 78.1641 90.4418 79.5754 90.0579 80.9536C89.3502 83.4948 88.1317 85.9956 86.0669 87.7033C83.9228 89.4772 81.1521 90.2984 78.4995 90.956C73.8861 92.0991 65.4937 93.2606 60.8702 93.3089C55.6894 93.3628 51.6747 92.0149 46.7504 90.5693C44.9134 89.9757 41.556 88.5696 39.637 88.8908C37.59 89.234 35.4228 91.7552 36.9099 93.7525C37.1366 94.0566 37.3872 93.8525 37.2743 93.2351C37.0559 90.8837 39.7966 90.2606 41.6687 90.7655C43.3535 91.2198 45.5661 92.2452 47.2419 92.7944C54.6947 95.2381 62.8345 96.1782 70.6405 95.3708C74.3868 94.9835 78.1246 94.1416 81.537 92.5103C83.8673 91.3965 86.5933 89.4642 88.4746 87.5641C90.8128 85.2032 91.6356 81.1159 92.0903 77.9668C92.5048 75.092 92.5228 72.1705 92.2249 69.2832C92.0622 67.7056 91.8798 66.1149 91.6424 64.5369C91.4599 62.5626 90.8066 60.0469 90.1371 58.2539C88.8832 54.8912 87.4161 52.5449 85.6936 49.4289C84.8708 47.9407 84.0874 46.4447 83.2887 44.9413C81.3766 41.3436 79.7404 37.8796 77.8166 34.4002C75.7983 30.7469 73.9091 27.8374 72.1804 23.8717C71.4734 22.2496 70.7554 19.9859 70.0163 18.4842C69.331 17.0916 68.3466 15.7806 67.05 14.9084C64.3392 13.0838 59.4311 13.262 56.5727 14.4596C52.7843 16.0467 50.8793 18.5145 51.5383 22.6703C51.2257 22.7637 50.9238 22.9573 50.6965 23.1484C49.3819 24.2563 49.3628 26.126 50.2974 27.4993C51.6607 29.5021 54.1313 29.7828 56.446 29.4432C56.5008 29.5117 56.5532 29.5831 56.608 29.6523C56.654 29.7086 56.708 29.7321 56.7623 29.7418C57.4505 30.677 58.2093 31.5664 58.9933 32.4093C59.8268 33.3059 60.7097 34.1957 61.6581 34.9881C62.8486 36.0921 64.1495 36.8543 65.8624 36.8852C68.1272 40.3587 69.4404 44.4374 69.5408 48.5899C69.5936 50.7737 69.2946 52.9289 68.7226 55.034C67.6109 59.1264 65.7581 63.1033 66.4669 67.4558C64.0064 63.6976 59.8211 61.4716 55.3789 61.4756C53.5711 61.4773 51.8067 61.8941 50.0392 62.2219C47.9917 62.6022 45.8805 62.8067 43.8694 62.1657C43.6219 61.9991 43.3755 61.8282 43.1297 61.6465C41.4924 60.438 39.8607 59.2793 37.9572 58.5233C34.0927 56.9891 29.7161 56.9986 25.8702 58.5841C23.7899 59.4418 21.8499 60.7124 20.3816 62.4339C20.2078 62.6387 20.4623 62.8957 20.5741 62.8168C25.754 59.1892 33.0119 59.1477 38.8333 61.0138C40.2 61.4519 43.1646 62.4295 41.8551 64.5498C40.537 66.6848 38.8313 64.592 37.7584 63.7134C35.7364 62.06 34.9787 61.9504 32.523 62.1555C32.3904 62.1668 32.3546 62.3524 32.491 62.3939C38.4032 64.1987 38.6303 71.3914 36.794 76.169C35.4476 79.0494 33.0321 81.567 31.386 84.2725C30.1318 86.1072 29.6922 88.3257 31.0298 90.3006C31.1221 90.4368 31.3025 90.3749 31.2398 90.1695C30.9616 87.8587 32.1481 86.0741 33.5997 84.4068C34.1618 83.7613 34.713 83.1103 35.2437 82.4442C36.7567 83.1169 38.3639 83.479 39.979 83.5671C40.6714 85.3932 46.1054 87.6322 48.2864 88.1089C48.8443 88.2311 49.4038 88.3192 49.9752 88.3264C50.2233 88.3148 50.2273 88.1421 50.0392 88.0647C49.0851 87.7073 48.1147 87.3909 47.1814 86.9783C42.9512 85.1102 48.9533 81.721 50.9523 80.7908C52.0748 80.2685 53.0224 79.8799 54.2575 79.8184C56.7242 80.3371 59.0148 79.8179 61.3097 78.8425C63.2191 78.0309 65.584 77.1403 66.523 75.1245C66.8295 74.4676 66.9755 73.7486 67.0029 73.0148C67.3307 71.9576 68.6121 71.6401 69.281 72.4036C70.0988 73.3369 70.8924 74.2886 71.7286 75.2058C73.9253 77.6155 79.9789 82.7175 79.9454 85.3737C79.9408 85.6962 79.9403 85.9866 79.8044 86.2799C79.681 86.5409 79.9134 86.6503 80.1116 86.3258C80.6855 85.2647 80.8298 84.0344 80.5228 82.8781C84.7063 85.2146 87.164 78.6746 86.4469 79.6283ZM62.7133 31.0909C64.1131 31.3627 65.2473 33.7407 65.6886 35.0279C65.7929 35.3307 65.748 35.6292 65.3825 35.6573C64.2477 35.7446 62.0398 34.2113 61.2451 33.28C60.1204 31.8682 61.0997 31.0134 62.7133 31.0909ZM62.4949 72.645C61.3854 71.5657 60.1984 70.5335 58.9058 69.6875C56.3971 68.0437 52.841 67.0526 50.1424 68.8563C50.0482 68.9192 50.1823 69.0475 50.2402 69.0341C52.3565 68.5334 54.5461 68.7792 56.3971 69.9682C61.4893 73.2397 59.6146 76.4515 55.2095 77.6508C52.3252 78.436 49.5071 78.047 46.8901 76.863C40.1641 73.822 38.1039 67.5127 46.5695 64.9114C50.8155 63.8411 54.2762 63.3742 58.7504 64.3585C60.8735 64.8253 62.9637 65.6718 64.4582 67.3097C67.585 70.7337 64.2905 73.45 62.4949 72.645ZM49.1166 79.7248C47.0372 81.4699 44.2629 82.5169 41.5639 82.6564C40.3164 82.7204 38.3562 82.6488 37.654 81.5358C37.0524 80.5821 37.859 79.3531 38.2444 78.4607C38.5946 77.6511 38.8881 76.7716 39.334 76.0097C39.7063 75.3737 40.4009 75.0604 41.0154 75.2759C43.0624 76.7573 46.0245 78.2629 48.4868 78.6478C49.0329 78.6927 49.8848 79.1241 49.1166 79.7248Z" fill="white"/>
</svg>
