<svg width="120" height="120" viewBox="0 0 120 120" fill="none" xmlns="http://www.w3.org/2000/svg">
<path d="M60 120C93.1371 120 120 93.1371 120 60C120 26.8629 93.1371 0 60 0C26.8629 0 0 26.8629 0 60C0 93.1371 26.8629 120 60 120Z" fill="#040606"/>
<path d="M20.7522 94.2668C20.9358 94.0694 21.1433 93.9206 21.3761 93.8201C21.6089 93.7198 21.8328 93.6485 22.0492 93.6059C22.2642 93.5637 22.4537 93.5413 22.6179 93.5389C22.7821 93.5364 22.894 93.5342 22.9552 93.5319L29.0657 95.4507C29.1119 95.464 29.1657 95.4737 29.2268 95.4788C29.288 95.4845 29.3478 95.4703 29.4075 95.4376L29.4194 95.4258C29.4552 95.3864 29.4657 95.3288 29.4463 95.2531C29.4284 95.1779 29.388 95.1107 29.3254 95.0519L24.3358 90.4262L25.7866 88.8621L32.0671 94.6852C32.5179 95.1028 32.7746 95.5585 32.8388 96.0513C32.903 96.5443 32.8149 97.0319 32.5746 97.5137C32.5746 97.5288 32.5209 97.5958 32.4104 97.7142C32.1254 98.0225 31.7806 98.2356 31.3761 98.3537C30.9731 98.4719 30.5806 98.5076 30.197 98.4615L24.1089 96.5415C24.0627 96.5282 24.0089 96.5146 23.9477 96.5019C23.8865 96.4885 23.8269 96.5143 23.7672 96.5773C23.6731 96.68 23.7 96.801 23.8507 96.9401L28.8388 101.565L27.3895 103.13L21.0955 97.2959C20.6463 96.8782 20.388 96.4228 20.3239 95.9297C20.2597 95.4368 20.3478 94.9492 20.5895 94.4674C20.588 94.4524 20.6433 94.3855 20.7522 94.2668Z" fill="#4A7DC8"/>
<path d="M44.6985 101.79L47.3075 102.921L44.6553 109.045C44.2911 109.885 43.7821 110.404 43.1269 110.601C42.4717 110.8 41.606 110.666 40.5284 110.198L36.7911 108.581C35.7135 108.113 35.0224 107.573 34.7179 106.96C34.415 106.348 34.4448 105.621 34.809 104.781L37.4612 98.6555L40.0717 99.7861L37.7657 105.11C37.6672 105.337 37.6015 105.542 37.5702 105.721C37.5403 105.901 37.5523 106.069 37.609 106.222C37.6657 106.376 37.7791 106.522 37.9478 106.66C38.118 106.797 38.3597 106.934 38.6762 107.072L40.3374 107.791C40.6433 107.924 40.9075 108.006 41.1299 108.037C41.3508 108.069 41.5374 108.052 41.6881 107.988C41.8389 107.925 41.9687 107.819 42.0792 107.675C42.1896 107.528 42.2941 107.342 42.3926 107.113L44.6985 101.79Z" fill="#4A7DC8"/>
<path d="M57.906 106.54L54.294 106.294L54.1672 108.148L57.7791 108.396C58.3373 108.433 58.7179 108.397 58.9194 108.287C59.1209 108.176 59.2358 107.939 59.2597 107.573C59.2746 107.369 59.2686 107.203 59.2448 107.078C59.2224 106.952 59.1612 106.854 59.0627 106.782C58.9657 106.71 58.8239 106.658 58.6373 106.622C58.4507 106.588 58.206 106.561 57.906 106.54ZM58.9716 110.615L61.797 114.064L58.6209 113.846L55.7298 110.409L54.0194 110.293L53.8 113.516L50.9612 113.322L51.6015 103.972L58.9866 104.476C60.1567 104.557 60.9896 104.834 61.4806 105.31C61.9716 105.788 62.1851 106.482 62.1239 107.396L62.0731 108.121C62.0134 108.993 61.7463 109.633 61.2701 110.043C60.794 110.454 60.0269 110.643 58.9716 110.615Z" fill="#4A7DC8"/>
<path d="M71.3851 112.603L68.5747 113.134L66.8329 103.925L69.6433 103.393L71.3851 112.603Z" fill="white"/>
<path d="M81.306 107.094L86.9746 104.413L87.8866 106.342L81.1955 109.506C80.1328 110.007 79.2716 110.17 78.6104 109.994C77.9507 109.819 77.4224 109.316 77.0328 108.488L75.3328 104.894C74.9418 104.067 74.8881 103.342 75.1702 102.718C75.4552 102.095 76.1269 101.533 77.1896 101.032L83.8806 97.8682L84.7925 99.7967L79.1239 102.476C78.812 102.624 78.5731 102.77 78.4105 102.913C78.2448 103.057 78.1373 103.206 78.0851 103.361C78.0343 103.516 78.0284 103.687 78.0657 103.87C78.106 104.055 78.1746 104.254 78.2761 104.467L79.2299 106.484C79.3373 106.709 79.4463 106.891 79.5627 107.033C79.6761 107.176 79.8105 107.276 79.9642 107.336C80.1149 107.394 80.3 107.406 80.5149 107.369C80.7299 107.333 80.9955 107.24 81.306 107.094Z" fill="white"/>
<path d="M92.0433 95.8625L95.6179 92.3058L93.088 89.763L95.1045 87.7568L101.715 94.4007L99.7 96.4071L97.1224 93.8183L93.5478 97.3749L96.1254 99.9635L94.109 101.97L87.497 95.3255L89.5149 93.3195L92.0433 95.8625Z" fill="white"/>
<path fill-rule="evenodd" clip-rule="evenodd" d="M108.375 41.4106L107.618 41.7011C112.131 53.3517 112.131 66.6504 107.618 78.301L108.375 78.5895C112.96 66.7517 112.96 53.2483 108.375 41.4106Z" fill="#EE252C"/>
<path fill-rule="evenodd" clip-rule="evenodd" d="M102.896 74.4472C106.037 65.1739 106.037 54.8281 102.896 45.5527L102.131 45.8121C105.216 54.9178 105.216 65.0842 102.131 74.1899L102.896 74.4472Z" fill="#EE252C"/>
<path fill-rule="evenodd" clip-rule="evenodd" d="M105.59 40.373L104.848 40.6927C110.137 52.8407 110.137 67.1612 104.848 79.3072L105.59 79.6289C110.969 67.2783 110.969 52.7256 105.59 40.373Z" fill="#EE252C"/>
<path fill-rule="evenodd" clip-rule="evenodd" d="M111.187 42.76L110.419 43.0175C114.118 53.9524 114.118 66.0496 110.419 76.9825L111.187 77.2419C114.939 66.1393 114.939 53.8627 111.187 42.76Z" fill="#EE252C"/>
<path fill-rule="evenodd" clip-rule="evenodd" d="M104.293 42.9803L103.539 43.2709C107.661 53.9075 107.661 66.0947 103.539 76.7293L104.293 77.0197C108.485 66.198 108.485 53.8042 104.293 42.9803Z" fill="#EE252C"/>
<path fill-rule="evenodd" clip-rule="evenodd" d="M16.4612 76.7293C12.3374 66.0947 12.3385 53.9075 16.4612 43.2709L15.7066 42.9803C11.5116 53.8042 11.5116 66.198 15.7066 77.0197L16.4612 76.7293Z" fill="#EE252C"/>
<path fill-rule="evenodd" clip-rule="evenodd" d="M9.57985 76.9845C5.88223 66.0496 5.88223 53.9524 9.57985 43.0175L8.81447 42.76C5.0603 53.8627 5.0603 66.1393 8.81447 77.2419L9.57985 76.9845Z" fill="#EE252C"/>
<path fill-rule="evenodd" clip-rule="evenodd" d="M17.103 45.5527C13.9601 54.8281 13.9601 65.1741 17.103 74.4493L17.8695 74.1899C14.7842 65.0842 14.7842 54.918 17.8695 45.8123L17.103 45.5527Z" fill="#EE252C"/>
<path fill-rule="evenodd" clip-rule="evenodd" d="M15.1525 79.3072C9.86164 67.1612 9.86164 52.8407 15.1525 40.6948L14.4096 40.373C9.03104 52.7256 9.03104 67.2783 14.4096 79.6289L15.1525 79.3072Z" fill="#EE252C"/>
<path fill-rule="evenodd" clip-rule="evenodd" d="M12.3794 41.7011L11.6257 41.4106C7.04093 53.2483 7.04093 66.7517 11.6248 78.5895L12.3794 78.301C7.86675 66.6504 7.86675 53.3517 12.3794 41.7011Z" fill="#EE252C"/>
<path d="M30.1478 12.7118C38.897 7.14284 49.4508 4.07956 59.8851 4.07956C59.9627 4.07956 60.0418 4.07956 60.1179 4.07956C70.5478 4.07956 81.1 7.14254 89.8523 12.7118C98.6209 18.2448 105.909 26.4218 110.394 35.7484C108.563 35.8746 106.728 36.0616 104.933 36.3057C103.858 36.451 102.949 36.9082 102.155 37.7031C100.894 38.9637 99.5761 40.1942 98.2329 41.3649C94.812 34.3445 89.306 28.1994 82.6941 24.0328C75.9388 19.7404 68.1135 17.473 60.0642 17.473C60.0224 17.4728 59.9791 17.4728 59.9373 17.473C51.8881 17.473 44.0627 19.7407 37.3075 24.031C30.694 28.2016 25.1896 34.3443 21.7672 41.3652C20.4254 40.1948 19.1075 38.9639 17.8464 37.7045C17.0535 36.909 16.144 36.4513 15.0661 36.3057C13.2636 36.0606 11.4282 35.874 9.6051 35.75C14.0909 26.4196 21.3776 18.2448 30.1478 12.7118ZM9.12764 37.713L9.13047 37.7131C11.0208 37.8334 12.9276 38.0233 14.799 38.2776C15.4455 38.3652 15.9508 38.6216 16.4385 39.1108C17.7884 40.46 19.2015 41.7758 20.6388 43.0216C21.0463 43.3751 21.5612 43.5358 22.0911 43.4731C22.6866 43.4027 23.1642 43.0685 23.3985 42.5634C26.6448 35.7396 31.9612 29.7558 38.3717 25.7127C44.8105 21.6233 52.2657 19.4631 59.9403 19.4631C59.9806 19.4631 60.0209 19.4631 60.0612 19.4631C67.7344 19.4631 75.1896 21.6234 81.6299 25.7143C88.0373 29.7524 93.3552 35.7361 96.597 42.5564C96.8403 43.0737 97.3194 43.4084 97.909 43.4731C97.9836 43.4821 98.0597 43.4866 98.1329 43.4866C98.5836 43.4866 99.0134 43.3249 99.3597 43.0224C100.796 41.7769 102.21 40.4609 103.563 39.1106C104.043 38.6285 104.566 38.3636 105.202 38.2776C107.063 38.0245 108.972 37.834 110.866 37.7115C111.491 37.6745 112.024 37.3115 112.293 36.7467C112.543 36.2327 112.537 35.6261 112.281 35.0793C107.575 25.1966 100.187 16.88 90.9194 11.031C81.8523 5.26254 70.9209 2.08955 60.1224 2.08955C60.0836 2.08955 60.0418 2.08955 60.0015 2.08955C49.1582 2.07149 38.1761 5.24224 29.0821 11.031C19.812 16.8802 12.4238 25.1967 7.71719 35.0851C7.46286 35.6251 7.45823 36.2293 7.70226 36.7376C7.97106 37.3069 8.50406 37.6715 9.12764 37.713Z" fill="white"/>
<path d="M60 96.8843C50.1477 96.8843 40.8851 93.0477 33.9179 86.0818C26.9522 79.1164 23.1164 69.8537 23.1164 60C23.1164 50.1476 26.9522 40.8858 33.9179 33.9201C40.8851 26.9539 50.1477 23.1174 60 23.1174C69.8507 23.1174 79.1149 26.9539 86.0821 33.9201C93.0463 40.8873 96.8836 50.1492 96.8836 60C96.8836 69.8524 93.0463 79.1151 86.0791 86.0818C79.1149 93.0477 69.8507 96.8843 60 96.8843ZM60 21.3815C49.6851 21.3815 39.9881 25.3992 32.6925 32.6945C25.3985 39.9882 21.3821 49.6855 21.3821 60C21.3821 70.3158 25.3985 80.0136 32.6925 87.3074C39.9851 94.6013 49.6836 98.6185 60 98.6185C70.3164 98.6185 80.0134 94.6013 87.3059 87.3074C94.6015 80.0133 98.6164 70.3154 98.6164 60C98.6164 49.6849 94.6015 39.9876 87.3074 32.6945C80.0119 25.3992 70.3149 21.3815 60 21.3815Z" fill="white"/>
<path d="M89.8507 107.293C81.0985 112.858 70.5537 115.921 60.1343 115.921C60.0881 115.921 60.0433 115.921 59.997 115.921C49.5403 115.954 38.9373 112.884 30.1448 107.29C21.3776 101.757 14.0881 93.578 9.60403 84.2515C11.4273 84.1262 13.263 83.9398 15.0657 83.6963C16.1424 83.551 17.0519 83.0933 17.8452 82.2987C19.1075 81.0371 20.4269 79.8059 21.7672 78.6375C25.1866 85.6538 30.6925 91.7995 37.3045 95.9714C44.0627 100.261 51.8821 102.527 59.9239 102.527C59.9731 102.527 60.0224 102.527 60.0731 102.527C68.1179 102.527 75.9388 100.261 82.6911 95.9727C89.306 91.8008 94.8105 85.6575 98.2328 78.6375C99.5716 79.8054 100.891 81.0365 102.155 82.2984C102.949 83.0938 103.858 83.5511 104.936 83.6963C106.736 83.9396 108.572 84.126 110.394 84.2514C105.909 93.5814 98.6209 101.757 89.8507 107.293ZM112.294 83.2539C112.022 82.6908 111.491 82.3302 110.872 82.2889H110.87C108.979 82.1666 107.07 81.9768 105.2 81.7242C104.566 81.6383 104.043 81.3736 103.563 80.891C102.209 79.5399 100.796 78.2238 99.3612 76.9827C98.9552 76.6271 98.4373 76.4657 97.9149 76.528C97.3194 76.5942 96.8403 76.9284 96.6015 77.4387C93.3552 84.2621 88.0373 90.2466 81.6254 94.2912C75.1896 98.3781 67.7403 100.537 60.0687 100.537C60.0224 100.537 59.9746 100.537 59.9269 100.537C52.2612 100.537 44.809 98.378 38.3687 94.2898C31.9612 90.2468 26.6448 84.2623 23.4015 77.4459C23.1627 76.933 22.6851 76.5987 22.0851 76.528C21.5582 76.4701 21.0463 76.6295 20.6418 76.9793C19.2045 78.2245 17.7899 79.5405 16.4379 80.8916C15.9569 81.3736 15.4361 81.6381 14.7994 81.7242C12.9287 81.9768 11.0213 82.1666 9.12866 82.2889C8.51105 82.3301 7.97941 82.6907 7.70478 83.2569C7.45493 83.7774 7.45911 84.3666 7.71911 84.9224C12.4254 94.806 19.8134 103.122 29.0791 108.972C38.1463 114.739 49.0717 117.911 59.8552 117.911C59.9508 117.911 60.0448 117.911 60.1388 117.911C70.9254 117.911 81.8522 114.739 90.9149 108.973C100.187 103.122 107.575 94.8054 112.281 84.9218C112.537 84.3799 112.543 83.7727 112.294 83.2539Z" fill="white"/>
<path d="M24.197 24.0964C23.9134 23.8307 23.6388 23.8397 23.3731 24.1233L21.3791 26.2501L22.4433 27.2468L24.4358 25.12C24.7015 24.8362 24.6926 24.5616 24.409 24.2958L24.197 24.0964ZM22.097 22.9271C23.1597 21.7928 24.2582 21.757 25.3925 22.8201L25.606 23.0195C26.7403 24.0828 26.7746 25.1813 25.712 26.3158L23.7194 28.443L26.0582 30.6356L24.8627 31.9119L18.9075 26.3306L22.097 22.9271Z" fill="white"/>
<path d="M28.8642 24.3885L25.3612 19.7282L26.7582 18.6772L30.2612 23.3375C30.4955 23.6482 30.7672 23.6866 31.0776 23.4533L32.9418 22.0519C33.2537 21.8183 33.291 21.5463 33.0582 21.2354L29.5552 16.5751L30.9537 15.5242L34.4567 20.1845C35.391 21.4273 35.2358 22.5158 33.9925 23.45L32.1299 24.8513C30.8866 25.7855 29.7985 25.6312 28.8642 24.3885Z" fill="white"/>
<path d="M32.809 14.4049L34.3567 13.5918L37.3388 19.2694L41.2105 17.2361L41.5075 19.0558L36.6045 21.6311L32.809 14.4049Z" fill="white"/>
<path d="M39.8881 10.8621L41.5403 10.2882L43.6448 16.3467L47.7746 14.9121L47.7985 16.7554L42.5657 18.5725L39.8881 10.8621Z" fill="white"/>
<path d="M49.0164 16.5004L47.1702 8.5494L48.8746 8.15417L50.7194 16.1051L49.0164 16.5004Z" fill="white"/>
<path d="M52.7925 10.5046L53.3492 15.6049L51.6119 15.7951L50.7239 7.68121L52.5492 7.48136L56.497 12.2108L55.9403 7.11047L57.6776 6.92017L58.5657 15.0345L56.7403 15.234L52.7925 10.5046Z" fill="white"/>
<path d="M62.2567 7.02521L67.203 7.3482L66.506 9.05566L62.1433 8.77059C61.7552 8.74506 61.5492 8.92641 61.5239 9.31447L61.2955 12.8049C61.2702 13.1928 61.4507 13.3994 61.8388 13.4249L64.7478 13.6148L64.8433 12.1601L63.097 12.0464L62.6298 10.2628L66.703 10.5289L66.3791 15.4742L61.7254 15.1701C60.1731 15.0688 59.4492 14.2424 59.5507 12.6909L59.7776 9.20014C59.8791 7.64909 60.706 6.92372 62.2567 7.02521Z" fill="white"/>
<path d="M75.694 15.4627L75.8672 14.9058L77.709 14.8669L77.3657 15.9808C76.906 17.4657 75.9328 17.9781 74.4463 17.5176L72.2194 16.8275C70.7343 16.3672 70.2209 15.3946 70.6821 13.9097L71.7179 10.5679C72.1776 9.08314 73.1508 8.57075 74.6343 9.03105L76.8642 9.72135C78.3478 10.1815 78.8597 11.1542 78.4 12.6394L78.0552 13.753L76.5567 12.6784L76.7299 12.1213C76.8433 11.7503 76.7164 11.5072 76.3448 11.3921L74.1179 10.7015C73.7478 10.5864 73.503 10.7148 73.3896 11.086L72.3522 14.4273C72.2373 14.7987 72.3657 15.0418 72.7358 15.1569L74.9657 15.8472C75.3358 15.9622 75.5776 15.834 75.694 15.4627Z" fill="white"/>
<path d="M84.7761 15.7431C84.9552 15.3976 84.8716 15.1359 84.5254 14.9576L81.9343 13.6222L81.2672 14.9177L83.8582 16.2532C84.203 16.4312 84.4657 16.3476 84.6433 16.0022L84.7761 15.7431ZM85.3269 13.4029C86.709 14.1152 87.0433 15.1622 86.3329 16.5443L86.197 16.8036C85.5806 18.0024 84.7105 18.4131 83.5881 18.0362L83.7687 21.7828L81.9761 20.8586L81.797 17.1589L80.4657 16.4724L78.997 19.3229L77.4403 18.5216L81.1806 11.2662L85.3269 13.4029Z" fill="white"/>
<path d="M86.8059 21.8459L90.7686 24.8232L89.2492 25.8711L84.3567 22.1933L89.2612 15.6681L94.388 19.5212L93.3373 20.9193L89.6074 18.1172L88.7328 19.2824L91.9955 21.7344L90.4776 22.7821L87.6821 20.6806L86.8059 21.8459Z" fill="white"/>
<path d="M98.4597 25.7104L99.9508 25.1479L101.194 26.5452L97.2597 28.0366L96.5911 29.3278L101.888 27.3243L103.134 28.7216L94.9612 31.819L93.9299 30.661L94.8075 28.9649L93.0224 29.6425L91.9896 28.4848L96.006 20.7212L97.2493 22.1187L94.6523 27.1515L96.012 26.6351L97.9448 22.8978L99.1896 24.2949L98.4597 25.7104Z" fill="white"/>
<path d="M60.8328 69.429C60.8492 69.4135 60.8656 69.397 60.8835 69.3817C61.1 69.5464 61.3164 69.7112 61.5895 69.9206C61.4089 69.9854 61.2955 70.0266 61.1567 70.0772C61.0403 69.8442 60.9373 69.6372 60.8328 69.429ZM60.7208 67.0653C61.5567 66.75 62.2716 66.8921 62.9402 67.3538C63.1149 67.4735 63.2701 67.6206 63.4403 67.7454C64.0522 68.1936 64.585 68.0308 64.8671 67.3197C65.0253 66.9179 65.197 66.5202 65.3641 66.1203C65.4059 66.1358 65.4462 66.1514 65.4865 66.1668C65.4373 66.3018 65.3865 66.4378 65.3149 66.6314C65.7671 66.9129 66.2298 67.2014 66.6925 67.4897C66.7253 67.4693 66.7582 67.4475 66.791 67.4259C66.382 66.4079 65.9731 65.3888 65.5298 64.2884C65.191 64.5523 64.9044 64.7769 64.5985 65.0159C64.6686 65.1726 64.7238 65.2932 64.8268 65.5156C64.6462 65.3756 64.5611 65.3084 64.4522 65.223C64.3208 65.3333 64.1895 65.4456 64.0313 65.5805C64.3477 65.8557 64.6388 66.1102 64.9701 66.3996C64.7298 66.8169 64.7611 67.3806 64.1985 67.6618C63.1074 66.5429 62.2612 65.2653 61.4447 63.9576C61.8746 65.1591 62.5194 66.2367 63.2925 67.2766C62.4746 66.612 61.5776 66.4378 60.585 66.8129C59.7686 65.4806 59.2403 64.0576 58.8776 62.5924C58.997 62.2935 59.1208 62.0266 59.2134 61.7496C59.3597 61.3054 59.3999 60.8645 59.1537 60.4287C58.9313 60.0341 58.9626 59.6508 59.2716 59.2993C59.388 59.1654 59.5164 59.0263 59.582 58.8654C59.6656 58.6647 59.7656 58.4235 59.7253 58.2288C59.6268 57.7578 59.4522 57.3035 59.3 56.8439C59.2716 56.7553 59.2134 56.675 59.1432 56.5411C59.7462 56.6729 60.0567 57.0872 60.3686 57.6044C60.3029 56.95 60.2761 56.3709 60.1791 55.8044C60.1283 55.5148 59.9596 55.2427 59.8253 54.9717C59.7507 54.8161 59.6402 54.6779 59.5447 54.5327C59.5626 54.4999 59.5806 54.4669 59.5985 54.4338C60.0164 54.577 60.4343 54.7191 60.7925 54.842C60.8477 55.1138 60.8626 55.2953 60.9209 55.4623C61.1298 56.0609 61.3597 56.6514 61.5701 57.2499C61.6373 57.4373 61.6626 57.6394 61.6268 57.8641C61.3955 57.4611 61.1641 57.0582 60.9343 56.6544C61.4701 58.9717 62.3104 61.1621 63.6612 63.2117C63.3701 63.2509 63.1671 63.2785 62.9223 63.3117C62.0014 62.0999 61.2149 60.7996 60.4522 59.4497C60.6015 59.2087 60.7432 58.9841 60.9432 58.6647C60.491 59.0026 60.2418 59.3654 60.1761 59.7938C60.1119 60.2039 60.1626 60.6317 60.1626 61.0767C60.491 60.7645 60.182 60.3564 60.3015 60.0969C60.8716 61.1972 61.4567 62.3275 62.0582 63.489H60.5417C61.182 63.7423 61.8373 63.7176 62.4955 63.629C62.8179 63.5866 63.1373 63.5064 63.4597 63.4909C63.9806 63.4651 64.4537 63.6021 64.8298 64.0194C64.785 64.0803 64.7492 64.1297 64.7 64.1967C64.4716 64.0421 64.2522 63.8927 64.0089 63.7269C63.9403 64.1453 64.4552 64.3966 64.2074 64.9005C63.8343 64.4666 63.5119 64.0938 63.1567 63.6815C62.9641 63.7176 62.7477 63.7588 62.4074 63.8236C62.8552 64.343 63.2477 64.7964 63.6761 65.292C63.4238 65.393 63.2104 65.4773 62.9179 65.5941C63.3447 65.6382 63.6477 65.5403 63.9089 65.3291C64.2119 65.0839 64.5044 64.8253 64.7955 64.5656C65.3403 64.0791 65.9343 63.8824 66.6313 64.2266C66.688 64.2556 66.7537 64.2657 66.8164 64.2863C67.5582 64.5347 67.9149 64.3884 68.3044 63.7C68.4835 63.3806 68.685 63.0736 68.8776 62.7614C68.9119 62.7809 68.9447 62.8015 68.9791 62.8211C68.7806 63.223 68.5731 63.6239 68.3806 64.0288C68.3179 64.1576 68.2492 64.2997 68.2492 64.4358C68.2552 65.8391 68.8462 66.9612 69.9835 67.7556C70.5253 68.1327 71.194 68.2018 71.8731 68.1823C72.1268 67.8269 72.3149 67.4702 72.1134 66.9953C71.7746 67.1054 71.4611 67.2456 71.1343 67.3042C70.8223 67.3609 70.491 67.3518 70.1731 67.3302C70.085 67.323 70.0044 67.1972 69.9223 67.1126C69.9119 67.1106 69.9029 67.1087 69.8925 67.1054C69.8925 67.1003 69.894 67.0963 69.894 67.0911C69.6418 66.9757 69.6134 66.7675 69.6716 66.5285C69.694 66.4336 69.7253 66.3409 69.7567 66.2493C70.0104 65.5126 69.894 65.2951 69.0462 65.0726C69.2432 65.0726 69.3417 65.0612 69.4373 65.0766C69.5477 65.0941 69.6552 65.1364 69.7612 65.1684C70.0656 65.427 70.0716 65.7403 69.9985 66.1009C69.9298 66.4235 69.9238 66.7603 69.894 67.0911C69.897 67.0921 69.8999 67.0941 69.9029 67.0951C69.9089 67.1003 69.9164 67.1064 69.9223 67.1126C70.6865 67.3197 71.4029 67.1405 72.1119 66.7738C72.6044 67.3302 72.2268 67.8473 72.097 68.3882C71.9716 68.4141 71.8626 68.4317 71.7552 68.4594C71.3731 68.5594 71.2223 68.7675 71.2403 69.1662C71.2462 69.2478 71.2582 69.3279 71.2671 69.4084C71.3716 70.1833 71.2432 70.4326 70.5179 70.8448C68.2343 69.9854 67.6626 68.1018 67.5925 65.9102C67.3746 67.5487 67.4671 69.1239 68.6253 70.4469C69.5567 71.5114 71.4806 72.2173 73.0313 71.4063C73.2104 71.3114 73.3776 71.192 73.6044 71.052H71.2104C71.2074 71.0312 71.2044 71.0108 71.2015 70.99C70.9671 71.0879 70.7298 71.1858 70.4955 71.2848C70.482 71.263 70.4671 71.2414 70.4537 71.2199C70.585 71.1333 70.7179 71.0508 70.8477 70.9602C71.3477 70.6067 71.6641 70.172 71.5089 69.5147C71.4447 69.2527 71.4492 68.9932 71.7567 68.7417C72.4373 68.9417 72.9193 68.446 73.4805 68.0885C73.7193 67.9359 74.0835 67.9835 74.382 67.94C74.2328 67.6991 73.9179 67.7711 73.7029 67.7639C73.9925 67.36 74.3701 66.9673 74.5805 66.4987C74.794 66.0236 74.8403 65.4735 74.9626 64.9387C75.1223 65.1663 75.3014 65.4239 75.4805 65.6803C75.5179 65.6784 75.5567 65.6765 75.5925 65.6754C75.6238 65.3178 75.6776 64.9602 75.6761 64.6038C75.6731 64.2503 75.6134 63.8969 75.6432 63.5197C75.7835 63.8958 75.9208 64.272 76.0597 64.6479C76.097 64.6408 76.1373 64.6347 76.1776 64.6275C76.1134 64.0999 76.0492 63.5714 75.9835 63.0191C76.3522 63.1518 76.7119 63.1696 77.0671 62.9303C77.4223 62.6914 77.5701 62.3451 77.6477 61.9566C77.7089 61.6466 77.7432 61.3302 77.8612 61.0045C77.9283 61.3787 77.9985 61.7517 78.0671 62.1226C78.2567 62.002 78.5059 61.355 78.5626 60.8048C78.8104 61.1747 78.491 61.4702 78.4835 61.6569C78.7477 62.2873 78.9626 62.8026 79.1985 63.3621C79.6895 63.4806 80.2925 63.0221 80.8238 63.5642C80.6761 63.5466 80.5746 63.5382 80.4776 63.5227C80.0716 63.4588 79.7208 63.5466 79.3805 63.797C77.6134 65.1035 76.6746 66.916 76.1552 68.9911C75.9701 69.7309 75.8044 70.4759 75.6074 71.3105C75.5223 70.9684 75.4582 70.7108 75.3731 70.3636C74.3477 71.732 73.3014 72.9612 71.5402 73.2002C71.8582 72.9726 72.1776 72.7436 72.4552 72.5448C71.7611 72.5594 71.0492 72.6356 70.3477 72.5757C69.0044 72.4605 67.8417 71.8493 66.7015 71.1673C64.9223 70.106 63.3865 68.7727 62.0328 67.2157C61.9865 67.1621 61.9134 67.1323 61.8208 67.122C62.4686 68.4408 63.394 69.5423 64.5194 70.5799C64.2253 70.6397 64.0089 70.683 63.791 70.7273C62.4985 69.7238 61.5194 68.4935 60.7208 67.0653ZM58.4999 54.7667C57.3298 54.9532 56.2686 55.46 55.1373 55.0314C56.4104 55.3436 57.5209 54.6008 58.7507 54.4772C59.288 54.9851 59.7835 55.523 59.9074 56.2535C59.4417 55.762 58.9596 55.252 58.4999 54.7667ZM54.6417 54.1711C54.082 54.1082 53.5208 54.0454 52.891 53.9753C52.8492 54.0361 52.7925 54.1206 52.7149 54.237C52.7149 54.1494 52.6955 54.0917 52.7179 54.0629C53.1701 53.4344 53.4626 52.7369 53.6447 51.9866C53.6701 51.8815 53.7343 51.7672 53.8164 51.6982C54.4328 51.1769 55.0597 50.6657 55.697 50.1412C56.1656 50.4844 56.5447 50.88 56.7313 51.4179C56.9179 51.9548 57.091 52.4915 57.6402 52.8099C57.6149 52.8326 57.5895 52.8553 57.5641 52.877C57.4597 52.8275 57.3567 52.7781 57.1985 52.7029C57.4029 53.4159 57.9626 53.7836 58.4179 54.2896C58.2358 54.3236 58.0955 54.3494 57.9134 54.3833C57.4044 53.7642 56.6447 53.6188 55.9224 53.3735C55.1746 53.1179 54.4432 52.8057 53.6537 52.4988C53.594 52.6905 53.5402 52.8657 53.482 53.0551C54.4104 53.4108 55.3 53.7506 56.191 54.0917C56.185 54.1135 56.1776 54.1361 56.1701 54.1578C55.3268 53.929 54.485 53.6962 53.6403 53.4756C53.5119 53.4426 53.3671 53.4714 53.2283 53.4714C53.2238 53.5106 53.2179 53.5488 53.2134 53.5878C53.694 53.7681 54.1746 53.9475 54.6552 54.1278C54.6507 54.1423 54.6462 54.1566 54.6417 54.1711ZM52.1343 55.0355C52.6791 55.1326 53.2238 55.2282 53.8044 55.3314C53.3104 55.5487 52.9328 55.4921 52.1343 55.0355ZM52.9611 55.9248C52.2925 56.0009 51.6253 56.1135 50.9552 56.1381C50.5582 56.1526 50.1462 56.066 49.7612 55.9536C49.1835 55.7836 49.0671 55.5839 49.0701 54.9944C49.0716 54.8809 49.085 54.7678 49.1238 54.605C49.5313 55.5878 50.3432 55.7496 51.2686 55.6867C51.1358 55.6157 51.0029 55.5447 50.8716 55.4724C50.8761 55.452 50.8806 55.4312 50.885 55.4108C51.5791 55.56 52.2731 55.7084 52.9656 55.8579C52.9641 55.8806 52.9626 55.9021 52.9611 55.9248ZM51.0462 52.0742C51.4492 52.0742 51.8537 52.0856 52.2567 52.0712C52.6537 52.0579 53.0492 52.0176 53.4462 51.9888C52.6611 52.5039 51.8477 52.1072 51.0462 52.0742ZM52.8641 51.8332C52.4552 51.9424 52.4552 51.9424 52.0194 51.5541C52.2791 51.6394 52.5402 51.726 52.8641 51.8332ZM54.4537 50.509C54.1731 50.3627 53.8388 50.2463 53.6477 50.0167C53.3134 49.6108 52.9641 49.2551 52.4731 49.045C52.894 49.0151 53.2268 49.1996 53.4805 49.4973C53.8268 49.9053 54.1358 50.3453 54.7612 50.3721C54.7507 50.4114 54.7403 50.4493 54.7283 50.4885C54.6358 50.4967 54.5223 50.5453 54.4537 50.509ZM52.7806 48.6182C53.1044 48.7791 53.4268 48.9409 53.7507 49.1017C53.7641 49.0842 53.7776 49.0666 53.791 49.0481C53.6403 48.8553 53.4895 48.6617 53.3388 48.4681C54.0925 48.842 54.4179 49.7703 55.3134 49.8909C55.3074 49.9847 55.3179 50.0269 55.3 50.0424C55.2447 50.0981 55.1806 50.1454 55.097 50.2133C54.2985 49.7035 53.5074 49.1973 52.7149 48.6926C52.7373 48.6678 52.7582 48.6432 52.7806 48.6182ZM52.8343 46.4412C52.5179 46.2269 52.2313 45.9394 51.8835 45.8105C51.0716 45.5096 50.9104 45.3212 50.9835 44.4175C51.2179 44.9069 51.5044 45.3221 52.0597 45.4623C52.0895 45.4097 52.1238 45.352 52.1716 45.2687C52.4731 45.589 52.7492 45.8806 53.0447 46.1938C53.0268 46.2897 53.0074 46.3929 52.9835 46.5154C52.9149 46.4814 52.8716 46.4659 52.8343 46.4412ZM53.5298 45.1573C53.2686 44.437 52.7985 43.9147 52.0925 43.6026C53.0537 43.652 53.5612 44.126 53.5298 45.1573ZM55.0671 47.6808C55.0313 47.689 54.9925 47.6973 54.9552 47.7054C54.8925 47.483 54.7746 47.2582 54.7776 47.0367C54.788 46.3391 54.6641 45.6921 54.2119 45.1338C54.785 45.5582 55.2805 47.0647 55.0671 47.6808ZM53.4716 47.66C53.1223 47.1863 53.0806 46.6144 53.3626 46.0073C53.3746 46.2073 53.3835 46.3618 53.394 46.5453C53.8074 46.9935 54.2328 47.4541 54.6761 47.9341C54.6119 48.0032 54.5626 48.0579 54.491 48.1332C54.1477 47.792 53.8179 47.4654 53.4403 47.0914C53.4522 47.3108 53.4612 47.4756 53.4716 47.66ZM56.3626 47.996C55.8403 48.0187 55.3686 47.8105 55.0283 48.2939C55.3358 48.6257 55.6164 48.9285 55.8985 49.2305C55.8776 49.2562 55.8567 49.282 55.8343 49.3076C55.5029 49.045 55.1716 48.7823 54.8194 48.503C54.6612 48.637 54.5074 48.7687 54.3522 48.9006C54.3015 48.4833 54.6507 48.337 54.8716 48.1321C55.2761 47.759 55.7567 47.7311 56.3626 47.996ZM61.8089 56.0927V57.0872C62.0119 57.2272 62.2522 57.3942 62.4865 57.5548C61.7373 57.6475 61.491 57.1417 61.8089 56.0927ZM62.7776 57.6672C62.9447 57.8496 63.0925 58.0114 63.2388 58.1732C63.2492 58.1773 63.2582 58.1803 63.2686 58.1845C63.2746 58.1906 63.2806 58.1959 63.2865 58.202C63.6865 58.2875 64.085 58.3729 64.4492 58.4514C65.2238 60.4254 66.1835 62.237 67.2746 64.0526C66.6208 63.9215 66.0208 63.8009 65.2552 63.6475C64.7238 62.0412 64.1403 60.2782 63.5268 58.4257C63.494 58.3936 63.3925 58.2999 63.2865 58.202C63.2776 58.2 63.2686 58.1978 63.2597 58.1958C63.2522 58.1887 63.2462 58.1803 63.2388 58.1732C63.0925 58.1196 62.9462 58.0648 62.788 58.0061C62.4746 58.475 62.5776 59.0366 62.5238 59.6157C62.3373 58.916 62.4223 58.2988 62.7776 57.6672ZM65.5895 57.7529C65.6925 57.9332 65.794 58.1144 65.8955 58.2947C66.2164 58.5884 66.5537 58.8666 66.8507 59.1818C67.0238 59.3642 67.1373 59.6044 67.2686 59.8227C67.3567 59.9711 67.4313 60.1267 67.6134 60.3029C67.4806 60.5687 67.3507 60.8356 67.2194 61.1024C67.2 61.0953 67.1805 61.0881 67.1597 61.0808V61.463C67.1358 61.4682 67.1104 61.4735 67.0835 61.4776C67.0582 61.3651 66.991 61.2415 67.0194 61.1436C67.0567 61.0097 67.1701 60.8985 67.2417 60.7727C67.3059 60.6594 67.3567 60.5399 67.4134 60.4266C67.4015 60.3905 67.3955 60.3606 67.3835 60.3317C67.097 59.5858 66.5238 59.0633 65.982 58.5142C65.9313 58.4627 65.9194 58.3729 65.8895 58.3009C65.7567 58.14 65.6238 57.9805 65.491 57.8206C65.5238 57.7979 65.5567 57.7753 65.5895 57.7529ZM66.2746 58.1988C66.2119 57.8856 66.1477 57.5714 66.085 57.257C66.3104 57.5239 66.4477 57.8311 66.2746 58.1988ZM68.085 62.1287C68.1358 62.2421 68.1686 62.2833 68.1686 62.3245C68.1731 62.6955 68.1716 63.0665 68.1716 63.5156C68.088 63.629 67.9582 63.8042 67.8283 63.9793C67.791 63.965 67.7522 63.9494 67.7149 63.935C67.8328 63.356 67.9522 62.7769 68.085 62.1287ZM69.8552 60.2412C69.9417 60.2412 70.0313 60.2812 70.1119 60.3894H67.9835C67.982 60.3388 67.9805 60.2885 67.9776 60.2379C68.6029 60.2379 69.2298 60.236 69.8552 60.2412ZM71.7328 66.5512C71.3805 66.4923 71.2895 66.2594 71.2492 65.8979C71.4432 66.1585 71.588 66.3554 71.7328 66.5512ZM73.0641 67.9854C73.0806 68.0153 73.094 68.0451 73.1104 68.075C72.885 68.1905 72.6611 68.3069 72.4358 68.4223C72.4134 68.383 72.3925 68.343 72.3701 68.3039C72.5119 67.9988 72.8044 68.0266 73.0641 67.9854ZM77.0268 61.3476C76.6701 61.2961 76.3149 61.2448 75.9447 61.1911C76.1298 61.0385 76.6686 61.1251 77.0268 61.3476ZM80.8358 62.783C80.8522 62.82 80.8671 62.8562 80.885 62.8933C80.7343 62.9397 80.5835 62.987 80.4313 63.0335C80.4194 62.9912 80.4074 62.9488 80.394 62.9066C80.5417 62.8654 80.688 62.8242 80.8358 62.783ZM81.6552 64.9036C81.5089 65.0117 81.4029 65.0902 81.2238 65.2218C81.3119 64.9932 81.3671 64.849 81.4283 64.682C81.3298 64.4926 81.2283 64.2935 81.1119 64.073C80.5089 64.0915 79.9582 64.2194 79.4701 64.5944C79.8402 63.9463 80.5014 63.9763 81.188 63.8639C81.3417 64.202 81.494 64.5451 81.6552 64.9036ZM83.8029 62.7685C84.288 62.7387 84.7029 62.8408 85.0567 63.323C84.8298 63.2108 84.6806 63.123 84.5209 63.0603C84.185 62.9251 83.8686 62.9273 83.5656 63.1806C82.9865 63.6693 82.3925 64.1411 81.797 64.6254C81.485 64.1884 82.0656 64.0123 82.085 63.6105C81.8999 63.7156 81.7432 63.8042 81.5626 63.9063C81.5223 63.8587 81.4761 63.8032 81.4104 63.7238C82.1656 63.2293 82.9074 62.8233 83.8029 62.7685ZM82.5507 69.26C81.9537 68.6129 81.2552 68.5296 80.4671 68.849C80.0791 69.0066 79.9806 68.9745 79.6104 68.8117C80.3567 68.4533 81.1522 68.6099 81.8791 68.4821C81.7776 68.1865 81.6791 67.9009 81.582 67.6165C81.6223 67.5971 81.6641 67.5785 81.7029 67.5588C81.7671 67.9997 82.0298 68.2688 82.3776 68.5027C82.6134 68.6603 82.8343 68.9045 82.5507 69.26ZM73.0746 58.035C72.9671 57.9866 72.9 57.9556 72.8014 57.9114C73.2641 56.3803 74.2746 55.4147 75.7119 54.8254C75.9238 55.1076 75.9104 55.3582 75.6656 55.5756C75.291 55.9105 75.0283 56.3041 74.9552 56.8129C74.9074 56.2227 74.9268 56.1732 75.4283 55.4848C74.3044 56.0051 73.5507 56.8809 73.0746 58.035ZM73.5328 54.3936H74.4298C73.9746 54.4606 73.4641 54.7853 73.1716 54.1329C73.288 54.2156 73.4015 54.2988 73.5328 54.3936ZM62.7806 72.2964C62.2492 71.6979 61.7895 71.0323 61.2731 70.3626C61.8343 70.1123 62.291 70.1256 62.6999 70.4408C63.2865 70.8921 63.8865 71.0642 64.6074 70.7541C64.9059 70.6263 65.2611 70.612 65.5746 70.8551H64.9955C66.3179 72.003 67.8417 72.7005 69.497 73.1538C68.5194 73.2239 67.5806 72.9953 66.6313 72.8138C67.6089 73.5711 68.6343 74.2326 69.8194 74.6242C70.9686 75.0033 72.094 74.9612 73.194 74.4511C73.3865 74.3614 73.5761 74.2585 73.8522 74.1182C72.8522 75.5597 71.3447 76.0132 69.8432 75.433C68.9447 75.0879 68.1835 74.549 67.4656 73.9287C67.3835 73.8565 67.2835 73.802 67.194 73.7391C67.7179 74.5367 68.3537 75.1982 69.0462 75.8194C70.1611 76.8199 71.5985 76.7457 72.9656 75.9173H72.2432C72.4015 75.837 72.4552 75.802 72.5134 75.7823C73.7119 75.3824 74.8194 74.8075 75.8671 74.11C76.5686 73.6412 77.2537 73.1424 77.9462 72.6612C78.7865 72.0782 79.6417 71.5257 80.7208 71.2611C80.1567 71.0705 79.6612 71.06 79.2044 71.255C78.4298 71.5847 77.6761 71.9657 76.9194 72.3367C76.4417 72.5717 75.9716 72.8263 75.4985 73.0714C75.4746 73.0281 75.4522 72.9848 75.4283 72.9405C76.4059 72.3296 77.3746 71.7041 78.3641 71.1106C79.1507 70.6385 79.9985 70.3872 80.9313 70.5481C81.4268 70.6336 81.9238 70.715 82.4223 70.7902C83.3089 70.922 84.1567 70.8293 84.9835 70.3697C84.8 70.175 84.6462 70.0121 84.488 69.8412C83.5223 70.1524 82.5388 70.1472 81.5761 69.9947C79.9477 69.737 78.4731 70.0606 77.1044 70.9457C76.7343 71.1848 76.3641 71.4229 75.994 71.6609C76.7835 70.5273 77.7537 69.6123 79.1149 68.9663C78.7238 68.75 78.4253 68.5841 78.094 68.3985C78.5597 68.4057 78.897 68.5996 79.2313 68.8457C79.4194 68.9859 79.6582 69.1159 79.8805 69.1333C80.1611 69.155 80.4552 69.0747 80.7388 69.0056C81.3313 68.8581 81.8641 68.9118 82.3089 69.3817V69.7978C82.6447 69.8463 82.6447 69.8473 83.0507 69.6236C83.691 69.2693 84.3104 69.2663 84.7746 69.8979C85.1507 70.4079 85.8612 70.4718 86.5 70.1214H85.4611C86.3104 69.4394 87.0283 68.7727 87.5477 67.9245C86.7089 68.6305 85.8403 69.2806 84.8134 69.7226C84.5388 69.3435 84.191 69.1167 83.7238 69.2384C83.3328 69.3393 82.9597 69.4887 82.4791 69.6505C82.8611 69.2663 83.0253 68.9209 82.7656 68.4553C84.2492 68.4687 85.5641 68.1369 86.6806 67.1953C85.7806 67.4332 84.894 67.669 84.0059 67.9041C83.994 67.8732 83.9835 67.8421 83.9716 67.8114C85.1089 67.3806 86.2582 66.9715 87.0343 65.8473C86.488 65.8917 86.0164 65.9287 85.5955 65.9618C85.2671 65.5487 85.2238 65.1991 85.3985 64.7747C85.4552 65.1066 85.5029 65.3899 85.5567 65.7105C85.7388 65.7279 85.8806 65.7639 86.0164 65.7484C86.3059 65.7156 86.5985 65.6742 86.882 65.6032C87.3477 65.4848 87.7955 65.4394 88.2746 65.8587C88.1149 65.3363 87.7865 65.2365 87.4014 65.1942C87.5895 64.5275 87.6716 63.8773 87.5567 63.2396C86.6134 62.9624 85.7074 62.6964 85.0671 62.5078C84.285 62.5493 83.7612 62.5769 83.2358 62.6048C83.2238 62.5656 83.2119 62.5266 83.1985 62.4873C83.3716 62.3482 83.5418 62.2091 83.7776 62.0185C83.3253 61.8248 82.9567 61.667 82.5089 61.4744C81.4582 61.9196 80.3716 62.3781 79.2776 62.8418C79.2612 62.7809 79.2298 62.646 79.1895 62.4779C79.8208 62.1123 80.4313 61.7578 81.085 61.3787C80.1746 61.1385 79.6403 61.8114 78.9626 62.1297C78.8641 61.9803 78.7805 61.8515 78.685 61.7042C79.0208 61.4497 79.3268 61.2147 79.5716 61.0305C79.1089 60.1948 78.6552 59.3764 78.1746 58.509C77.2537 58.3978 76.2865 58.403 75.2641 58.8418C75.9179 58.953 76.4656 59.0457 77.0134 59.1385C77.0074 59.1705 77.0014 59.2036 76.9955 59.2364C76.4835 59.2776 75.9716 59.32 75.5403 59.355C75.1597 59.1787 74.8462 59.0324 74.5194 58.882C74.9656 58.5584 75.5268 58.44 76.0671 58.3112C76.6014 58.1835 77.1567 58.1463 77.8104 58.0535C77.1179 57.8197 76.5238 57.9072 75.9238 57.965C76.5537 57.5642 77.2417 57.3684 78.0134 57.3015C77.6164 56.5564 77.2671 55.8569 77.4149 54.9851C76.9656 55.0347 76.5686 55.0778 76.1626 55.1232C76.1194 55.0067 76.082 54.9069 76.0238 54.7542C76.4238 54.6935 76.788 54.6378 77.1686 54.5791C77.2164 54.3082 77.2582 54.0639 77.3029 53.7991C77.0567 53.7878 76.8731 53.7785 76.691 53.7703C76.688 53.7579 76.688 53.7457 76.688 53.7332C76.8821 53.7136 77.0746 53.6941 77.294 53.6724C77.3373 53.5579 77.3791 53.4467 77.4447 53.2778C76.8343 53.1439 76.2686 52.9985 75.697 52.9006C74.4641 52.6915 73.3835 53.0067 72.4582 53.8682C71.8492 54.4379 71.4253 55.1232 71.1701 55.9063C70.9955 56.4409 70.8611 56.9923 70.8895 57.5632C71.2641 56.2308 71.3955 55.9517 71.8149 55.6302C71.3955 56.9675 71.3731 57.5272 71.697 58.1123C71.8985 57.6115 72.1089 57.0881 72.3209 56.5657C72.3537 56.5791 72.388 56.5936 72.4223 56.6069C72.2985 56.9191 72.1492 57.2241 72.0537 57.5457C71.9597 57.8681 71.9223 58.2062 71.8552 58.572C72.1074 58.7759 72.3343 58.9582 72.6388 59.2014C72.7268 58.7893 72.8612 58.507 72.5776 58.2215C72.8477 58.2175 73.0611 58.2535 73.1447 58.5275C72.8164 58.7582 73.0388 59.0503 73.0268 59.3597C73.2462 59.3739 73.4343 59.3863 73.691 59.4027C73.5865 59.1954 73.5223 59.0718 73.4582 58.9482C73.7731 59.1273 74.0955 59.2263 74.4716 59.2282C75.1238 59.2312 75.3507 59.4735 75.4611 60.132C75.4925 60.3226 75.5149 60.5317 75.6104 60.6893C75.8074 61.0139 75.7805 61.3344 75.7014 61.6764C75.6104 62.0761 75.5343 62.4802 75.4582 62.846C75.1701 62.2503 75.6597 61.6517 75.6313 60.9644C75.1746 60.6388 75.5104 59.8732 74.8761 59.4827C74.2925 59.7373 73.691 59.999 73.0268 60.2896C73.4522 60.6945 73.797 61.0211 74.1373 61.3476C74.0417 61.3787 73.9895 61.3518 73.9417 61.3209C71.5582 59.799 69.188 58.2545 66.782 56.7687C66.1119 56.3544 65.3432 56.095 64.6074 55.7991C64.3895 55.7126 64.1238 55.7466 63.8626 55.7239C63.7029 56.6594 64.1059 57.3972 64.3298 58.2451C64.0164 58.1845 63.7403 58.132 63.4791 58.0824C63.3865 57.7464 63.3089 57.4682 63.2253 57.1726C63.1492 57.3066 63.088 57.4188 62.9776 57.6115C62.9567 57.4478 62.9298 57.3818 62.9432 57.3262C63.0552 56.8779 62.9074 56.5162 62.6522 56.1423C62.4746 55.8784 62.4194 55.5302 62.3104 55.2191C62.3492 55.2045 62.388 55.189 62.4283 55.1738C62.5238 55.5869 62.6462 55.9857 63.0567 56.2329C62.9298 55.7197 62.8014 55.2078 62.6701 54.6779C62.0447 54.6821 61.5164 54.5236 61.0268 54.2091C61.1298 54.4824 61.2328 54.7542 61.3358 55.0275C61.3134 55.0366 61.294 55.046 61.2716 55.0551C60.9686 54.6854 60.6656 54.3164 60.3626 53.9464C60.3447 53.9578 60.3253 53.9681 60.3059 53.9794C60.3522 54.1215 60.3985 54.2639 60.4522 54.4276C60.0522 54.3627 59.6865 54.303 59.2835 54.2379C58.9746 53.8445 58.688 53.3776 58.3014 53.0151C57.7208 52.4678 57.2522 51.9033 57.3761 51.0593C56.8074 50.7245 56.4373 50.2761 56.3208 49.6714C56.2014 49.0481 56.385 48.5132 56.9806 48.1763C56.8209 48.0012 56.7014 47.8724 56.585 47.7405C55.9194 46.9863 55.897 46.2784 56.5388 45.5087C56.8149 45.1759 57.1298 44.8741 57.4537 44.5329C56.5865 44.1454 55.6985 44.0838 54.7671 44.1454C55.0447 44.3782 55.3209 44.6114 55.6791 44.9132C55.0701 44.7411 54.6358 44.4609 54.2462 44.1227C53.7179 43.6675 53.097 43.4623 52.4268 43.3675C51.1209 43.1841 50.2119 44.2103 50.5582 45.4759C50.5626 45.4921 50.5955 45.4994 50.6194 45.5129C50.6417 45.4233 50.6612 45.3417 50.6612 45.3406C50.9253 45.5047 51.197 45.6633 51.4582 45.8373C51.6582 45.9703 51.8925 46.0887 52.0298 46.2742C52.3701 46.7308 52.6641 47.2212 52.9761 47.6993C52.9507 47.7272 52.9238 47.755 52.897 47.7827C52.5388 47.5705 52.1671 47.3788 51.8268 47.1418C51.3403 46.8039 50.7865 46.6833 50.2223 46.6173C50.0268 46.5947 49.8164 46.7162 49.6119 46.772C49.597 46.8224 49.5805 46.8718 49.5641 46.9214C49.794 47.112 50.0253 47.3027 50.2552 47.4932C50.2358 47.522 50.2164 47.5508 50.1955 47.5797C49.8791 47.4335 49.5641 47.2872 49.2283 47.1315C48.985 47.6293 48.7462 48.1053 48.885 48.6782C49.0925 48.8439 49.294 49.0048 49.4955 49.1666C49.5164 49.1459 49.5358 49.1244 49.5567 49.1036C49.4044 48.8523 49.2522 48.5997 49.1 48.3484C49.7238 48.675 50.2791 49.0965 50.985 49.2191V48.9811C52.1686 49.5982 53.3149 50.1959 54.4925 50.8099C54.3985 50.915 54.3388 50.9821 54.282 51.045C53.6537 50.707 53.0492 50.3896 52.4522 50.0609C51.8403 49.725 51.1865 49.7003 50.4149 49.7075C51.2253 50.5317 52.1522 50.9727 53.0014 51.5427C52.3701 51.387 51.7582 51.1841 51.1522 50.9656C50.4417 50.71 49.8507 50.1578 48.997 50.129C48.8656 50.2496 48.7044 50.3978 48.494 50.5906C48.888 50.8893 49.2298 51.15 49.5731 51.4108C49.5626 51.4263 49.5507 51.4426 49.5403 51.4591C49.1612 51.2953 48.782 51.1315 48.3164 50.9285C48.3074 51.4282 48.2791 51.8621 48.3044 52.2927C48.3119 52.4535 48.4417 52.6079 48.5208 52.7626C48.5268 52.7739 48.5716 52.7645 48.588 52.7645C48.5597 52.6329 48.5343 52.506 48.5029 52.3597C48.8298 52.4587 49.1059 52.5411 49.4731 52.6514C49.3492 52.4967 49.297 52.4318 49.2104 52.3248C50.5014 52.6935 51.8447 52.3835 53.0403 52.9738C53.0223 53.0242 53.0074 53.0706 52.988 53.115C52.9686 53.1582 52.9447 53.1994 52.9238 53.2376C51.8567 52.8884 50.8194 52.7966 49.7388 53.0778C50.091 53.3118 50.4656 53.2706 50.8313 53.2427C51.485 53.1944 52.1164 53.249 52.7447 53.5363C52.6552 53.7106 52.5835 53.8485 52.5149 53.9824C52.1014 53.9578 51.7253 53.9351 51.3507 53.9124C51.3447 53.9382 51.3388 53.9639 51.3343 53.9899C51.5477 54.1639 51.7626 54.3381 51.9776 54.5123C51.5134 54.3411 51.0955 54.0526 50.6373 53.9464C50.188 53.8424 49.6955 53.9238 49.2328 53.9238C49.1597 54.0576 49.097 54.1526 49.0537 54.2568C48.6209 55.2881 48.8268 55.8012 49.6895 56.0845C49.888 56.1505 50.094 56.1978 50.2955 56.2597C50.6029 56.3524 50.9089 56.4503 51.2149 56.546C51.2104 56.575 51.2044 56.6027 51.197 56.6317H50.6253C50.8522 56.7841 50.9835 56.8718 51.1149 56.9603C51.1194 56.9387 51.1238 56.916 51.1283 56.8944C51.5776 56.9367 52.0253 56.9799 52.4761 57.0221V56.9511C52.4283 56.9305 52.382 56.9088 52.3343 56.8881C52.3432 56.8553 52.3522 56.8233 52.3626 56.7905C53.2208 56.9284 54.0791 57.0664 54.9417 57.2055C54.9074 57.1799 54.8641 57.1417 54.8179 57.1138C54.0925 56.6851 53.291 56.58 52.4716 56.543C52.1059 56.5266 51.7402 56.4802 51.3761 56.4472C51.3761 56.4111 51.3776 56.3751 51.3776 56.3391C51.7761 56.2979 52.1835 56.2896 52.5746 56.2081C53.6895 55.9753 54.7985 55.7156 55.9059 55.4591C56.7776 55.2561 57.5835 55.4653 58.3791 55.797C56.9537 55.4899 55.6029 55.866 54.2388 56.1948C55.6492 56.775 57.1403 56.9799 58.6059 57.2902C57.6776 56.6461 56.5283 56.6779 55.5208 56.2629C55.9611 56.2091 56.397 56.1732 56.8328 56.1732C57.3194 56.1741 57.8119 56.1702 58.291 56.2379C58.8373 56.3154 59.194 56.7729 59.2582 57.3106C59.2865 57.5466 59.3612 57.7815 59.4462 58.0051C59.5746 58.3472 59.5626 58.6472 59.2776 58.9356C59.1537 58.0938 58.9671 57.6724 57.8209 57.4838C57.4238 57.4179 57.0194 57.39 56.6179 57.3447C56.7149 57.4312 56.8238 57.4921 56.9388 57.5167C57.3044 57.595 57.6731 57.6588 58.0403 57.7302C58.7492 57.867 59.0701 58.3041 58.988 59.02C58.9731 59.1488 58.9612 59.2818 58.9209 59.4044C58.794 59.7938 58.8179 60.1566 58.9865 60.5409C59.2208 61.0788 59.085 61.595 58.7596 62.1967C58.6626 61.8227 58.5985 61.559 58.5253 61.2973C58.4194 60.9129 58.2656 60.5564 57.8821 60.3627C57.1477 59.9896 56.8104 59.3991 56.894 58.5739C56.897 58.5544 56.8686 58.5308 56.8507 58.5029C56.5164 59.1839 56.6044 59.7517 57.2821 60.3317C57.8776 60.8418 58.0925 61.4579 58.1955 62.1958C58.5029 64.3657 59.1925 66.3985 60.5029 68.1864C60.6776 68.4245 60.8671 68.6532 61.0507 68.886C61.0328 68.9024 61.0134 68.92 60.9955 68.9365C60.5895 68.5841 60.1835 68.2329 59.7492 67.8557C60.0298 69.5857 63.1671 73.5979 64.482 73.9823C63.9253 73.4372 63.3164 72.8993 62.7806 72.2964Z" fill="white"/>
<path d="M53.9746 64.3957C53.9328 64.3597 53.8925 64.3235 53.8507 64.2875C54.0253 64.103 54.2014 63.9197 54.3761 63.7353C54.4014 63.7559 54.4268 63.7765 54.4522 63.7971C54.2925 63.9969 54.1343 64.1969 53.9746 64.3957ZM50.5656 65.2262C49.7104 65.6156 49.0358 66.1875 48.5641 67.0076C48.3626 67.3581 48.1074 67.6805 47.8522 67.995C47.2223 68.7696 46.4805 69.4188 45.579 69.9206C45.6373 70.0463 45.6865 70.1535 45.7358 70.2606L45.6835 70.2853C45.5507 70.1111 45.4193 69.9382 45.3208 69.8082C45.6208 69.6208 45.9223 69.46 46.194 69.259C47.1701 68.5367 48.0059 67.6847 48.6044 66.6153C48.9328 66.029 49.4253 65.6023 50.0253 65.323C50.6656 65.0263 51.2373 64.6656 51.5999 64.0329C51.4373 64.5926 51.0805 64.9914 50.5656 65.2262ZM46.1044 70.376C47.9193 69.1653 49.491 67.8279 50.691 66.0215C50.3925 68.103 48.5686 70.1153 46.1044 70.376ZM49.9596 69.8948C49.9283 69.8744 49.897 69.8536 49.8671 69.8329C49.9731 69.6548 50.079 69.4764 50.1865 69.2982C50.2253 69.3323 50.2626 69.3672 50.3014 69.4012C50.188 69.5651 50.0731 69.73 49.9596 69.8948ZM49.0179 69.8227C49.2582 69.5569 49.4283 69.3694 49.5985 69.1818C49.5268 69.459 49.5477 69.8105 49.0179 69.8227ZM46.5895 72.509C46.194 72.3854 45.8268 72.2699 45.4581 72.1545C45.6447 71.9227 45.8268 71.6971 45.9537 71.5394C46.5298 71.3199 47.0387 71.126 47.6611 70.8893C47.3029 71.5157 47.1611 72.1565 46.5895 72.509ZM44.3969 72.0732C43.288 72.0329 42.185 72.0812 41.0746 72.4893C40.688 72.1711 40.2925 71.8423 39.8582 71.4847C40.4656 71.0356 41.0402 70.7162 41.7716 70.8954C42.6193 71.1024 43.3746 70.85 44.0999 70.4347C44.3268 70.3069 44.5626 70.1976 44.8582 70.0472C44.982 70.2359 45.082 70.3905 45.1805 70.5439C45.1596 70.5615 45.1388 70.58 45.1179 70.5985C45.0134 70.5141 44.9089 70.4308 44.8029 70.3462C44.1776 70.6429 43.5641 70.9335 42.9014 71.2476C43.6925 71.6639 44.4999 71.7012 45.4044 71.6362C45.0761 71.9473 44.782 72.0875 44.3969 72.0732ZM39.9343 72.9911C39.7134 72.746 39.5044 72.512 39.294 72.277C39.3089 72.2585 39.3238 72.2411 39.3402 72.2224C39.6522 72.3945 39.9626 72.5677 40.3298 72.7696C40.1761 72.8553 40.0731 72.9139 39.9343 72.9911ZM39.1447 70.3296C39.4671 70.0699 39.8179 70.1247 40.1492 70.1299C40.8387 70.1412 41.4552 69.9165 42.0477 69.5962C42.4731 69.3663 42.7522 69.0096 42.8507 68.5462C42.988 67.8908 43.3969 67.5012 43.9835 67.2508C44.2372 67.1415 44.4895 67.0284 44.7417 66.9171C44.7522 66.9078 44.7626 66.8984 44.7716 66.8893C44.8104 66.8553 44.8492 66.8212 44.888 66.7862C45.0104 66.6565 45.1313 66.5254 45.2552 66.3957C45.5969 66.0751 45.9402 65.7547 46.2835 65.4353C46.3134 65.4693 46.3432 65.5033 46.3731 65.5373C46.0134 65.8341 45.6507 66.1308 45.291 66.4275C45.1552 66.5481 45.0223 66.6678 44.888 66.7862C44.8522 66.8244 44.8164 66.8614 44.782 66.8996C44.7686 66.9057 44.7552 66.9109 44.7417 66.9171C44.6432 67.0108 44.5522 67.1169 44.4373 67.1839C44.2149 67.3169 43.9716 67.4147 43.7447 67.5384C43.3999 67.7269 43.1522 68.0196 43.0686 68.3945C42.9014 69.1365 42.497 69.6548 41.7388 69.9103C41.779 70.0215 41.8074 70.1039 41.8432 70.2018C40.9731 70.0875 40.279 70.5359 39.5134 70.9509C39.3925 70.7469 39.2746 70.5481 39.1447 70.3296ZM44.2283 60.096C44.1328 60.3318 44.0373 60.5678 43.9373 60.813C43.6059 61.0675 43.2671 61.3282 42.9283 61.5899C43.2179 60.9654 43.688 60.5018 44.2283 60.096ZM45.0029 62.7038C44.9074 63.66 44.0283 63.8218 43.5746 64.3678C43.7149 63.9278 44.3059 63.2478 45.0029 62.7038ZM45.2343 63.1335C45.2402 63.1108 45.2477 63.0881 45.2537 63.0666C45.2581 63.0633 45.2611 63.0614 45.2656 63.0582C45.3373 62.6502 45.4089 62.2423 45.488 61.7909C45.5328 61.896 45.5641 61.9712 45.6074 62.0744C46.2507 61.5993 46.8895 61.1263 47.5283 60.6544C47.0552 61.7362 46.1955 62.4327 45.2656 63.0582C45.2641 63.0644 45.2641 63.0696 45.2626 63.0757C45.2537 63.0954 45.2447 63.1139 45.2343 63.1335C45.1716 63.3724 45.1313 63.625 45.0193 63.8403C44.697 64.4596 44.5149 65.0965 44.582 65.8C44.6014 65.9814 44.5701 66.1669 44.4865 66.3432C44.4985 65.625 44.3432 64.8924 44.7119 64.2071C44.8999 63.8559 45.0626 63.492 45.2343 63.1335ZM47.8402 65.1045C48.2104 65.8105 48.1626 66.6305 47.6253 67.2705C47.6358 67.1221 47.6417 67.019 47.6537 66.8409C46.5596 67.7281 45.2656 68.0959 44.0402 68.612C44.0193 68.5862 43.9999 68.5605 43.9776 68.5359C44.8985 67.5702 45.8179 66.6048 46.7388 65.6393C46.7686 65.6642 46.7999 65.6899 46.8298 65.7145C46.4358 66.2453 46.0417 66.7759 45.6477 67.3056C45.6701 67.3271 45.694 67.3478 45.7179 67.3694C46.4164 66.8305 47.1149 66.2917 47.8567 65.7197C47.7029 65.0448 47.1761 64.4524 47.3104 63.6847C47.3417 63.7826 47.3701 63.8815 47.4059 63.9774C47.5462 64.3556 47.6537 64.7511 47.8402 65.1045ZM48.3581 65.5384C49.382 64.8059 50.3791 64.0929 51.3701 63.3838C51.1507 63.895 50.9074 64.4585 50.3283 64.6882C49.5805 64.9862 48.8671 65.2994 48.3895 66.0011C48.3641 65.9794 48.3387 65.9576 48.3119 65.9362C48.3298 65.7929 48.3462 65.6496 48.3581 65.5384ZM43.3373 73.363C43.3387 73.3867 43.3402 73.4105 43.3402 73.4341C43.0119 73.4487 42.682 73.463 42.3537 73.4775C42.3492 73.4393 42.3447 73.4012 42.3402 73.363H43.3373ZM35.5611 70.5472C35.8492 70.4645 35.8492 70.4645 36.2402 70.886C35.9462 70.7388 35.7477 70.6409 35.5611 70.5472ZM35.3313 71.1756C35.2537 70.9396 35.1746 70.7048 35.0985 70.4687C35.1223 70.4606 35.1447 70.4523 35.1686 70.4451C35.2581 70.6779 35.3447 70.9108 35.4343 71.1436C35.3999 71.1539 35.3641 71.1653 35.3313 71.1756ZM34.4746 68.9809C34.9059 69.1003 35.0477 69.3024 35.0686 69.8105C34.8716 69.5342 34.6701 69.2529 34.4746 68.9809ZM44.4596 58.742C44.5402 58.9388 44.6208 59.1347 44.7014 59.3314C44.6447 59.3457 44.588 59.3603 44.5313 59.3747L44.3611 58.775C44.394 58.7636 44.4253 58.7533 44.4596 58.742ZM52.7044 67.4084C52.8596 67.3024 52.9761 67.1726 53.088 67.0387C54.1193 65.8021 55.1298 64.5481 56.191 63.3385C56.5671 62.9109 56.7462 62.4266 56.882 61.9126C57.0104 61.4168 56.8835 61.1635 56.4522 60.8739C55.3507 62.0257 54.2477 63.1797 53.1328 64.3474C53.2104 64.1587 53.3074 63.9887 53.3507 63.8053C53.3955 63.6178 53.382 63.4178 53.4059 63.2242C53.4656 62.7151 53.597 62.4884 53.9567 62.2585C53.4596 63.149 53.4477 63.185 53.582 63.6538C54.4626 62.4812 55.3179 61.3426 56.1746 60.203C56.0746 59.9939 55.9984 59.8373 55.9298 59.6888C55.088 60.2566 54.279 60.8039 53.4701 61.3509C53.4462 61.3211 53.4238 61.2923 53.3999 61.2624C54.0462 60.4648 54.6925 59.6674 55.3925 58.8048H54.2328C52.9731 60.1197 51.697 61.4499 50.4194 62.7809C50.385 62.7533 50.3507 62.7254 50.3149 62.6976C51.3283 61.3478 52.3417 59.9981 53.3477 58.6585C52.8776 58.4657 52.4283 58.2835 51.9193 58.0763C50.682 60.0177 49.3865 61.9278 47.597 63.4375C47.6417 63.2447 47.7283 63.0809 47.8402 62.9347C48.9223 61.5056 49.8835 60 50.6641 58.3844C50.7492 58.2082 50.8089 58.0185 50.891 57.8117C50.7656 57.8042 50.7149 57.789 50.6701 57.8003C48.7552 58.2938 46.9298 58.9985 45.2104 59.9908C44.691 60.2906 44.4313 60.6947 44.294 61.2335C44.2686 61.3335 44.2447 61.4344 44.2193 61.5344C44.1268 61.1499 44.1731 60.7977 44.3537 60.4585C44.6761 59.859 44.9775 59.25 45.294 58.6493C45.3656 58.5144 45.4641 58.3938 45.5507 58.266C45.5641 58.2753 45.5805 58.2835 45.5955 58.2929C45.4984 58.5523 45.4014 58.813 45.2716 59.1624C46.1328 58.7296 46.8925 58.3484 47.6955 57.9456C46.1044 57.5766 44.6089 57.69 43.1567 58.2165C43.0895 58.7121 43.0432 59.182 42.9581 59.6435C42.882 60.0568 42.7149 60.4577 42.6746 60.8717C42.6044 61.5899 42.3626 62.2297 41.9761 62.8275C41.7895 63.1159 41.6119 63.4117 41.4298 63.7033C41.6477 63.6487 41.8074 63.5436 41.9716 63.4457C42.1313 63.3499 42.2955 63.2602 42.4581 63.1684C42.4835 63.1891 42.5104 63.2096 42.5373 63.2314C40.6462 65.0251 40.8596 67.1808 41.4462 69.3909C40.6984 69.932 39.8134 69.6393 39.0208 69.8959C38.9253 69.662 38.8402 69.4508 38.7552 69.2405C38.7223 69.2457 38.688 69.2508 38.6537 69.256V72.4214C38.0865 71.493 37.7283 70.5368 37.394 69.5735C37.2895 69.2735 37.1567 69.0499 36.8701 68.9181C36.6492 68.816 36.4402 68.6769 36.2104 68.61C35.4447 68.3896 34.6761 68.1814 33.9014 67.995C33.4402 67.8835 32.9671 67.8227 32.4462 67.73C32.9089 69.4344 33.8104 70.8129 34.7552 72.1699C33.9507 71.7908 33.5194 71.0333 32.9746 70.4132C32.4328 69.7929 32.0507 69.0345 31.5626 68.2833C31.5895 68.4296 31.5925 68.5275 31.6253 68.6141C32.1358 69.9885 32.7552 71.293 33.7014 72.446C34.5701 73.5044 35.6328 74.2585 36.8417 74.8406C37.0298 74.9314 37.2417 74.9941 37.4477 75.0168C38.1761 75.0972 38.9089 75.155 39.6387 75.2208C39.1268 75.3773 38.594 75.4979 38.0552 75.5806C37.3761 75.6857 36.7417 75.4176 36.088 75.3105C35.2179 75.1682 34.5044 74.7509 33.8626 74.175C33.6746 74.0051 33.4761 73.8442 33.282 73.6794C33.5537 74.0732 33.8193 74.4697 34.0969 74.8591C34.4164 75.3063 34.882 75.5424 35.3985 75.6547C36.0492 75.7959 36.7059 75.9072 37.3626 76.0081C37.9372 76.0966 38.4969 75.9947 39.0402 75.7959C39.3566 75.6794 39.6761 75.5693 39.994 75.4568C40.0044 75.4785 40.0149 75.5002 40.0253 75.5229C39.6358 75.7772 39.2477 76.0317 38.8223 76.309C39.3283 76.5985 39.7775 76.9869 40.3656 76.8469C40.9537 76.7068 41.5208 76.4769 42.0985 76.2872C42.0895 76.2554 42.0835 76.2233 42.0746 76.1915C41.1746 76.3594 40.2761 76.8799 39.3208 76.2203C39.9701 75.9247 40.485 75.5505 40.8149 74.9314C40.4328 74.6296 40.0656 74.34 39.7029 74.0535C38.788 74.106 38.3477 73.9587 38.1567 73.6341C38.4358 73.7197 38.8119 73.9402 39.1746 73.9215C39.6134 73.8978 40.0447 73.6857 40.4701 73.5281C40.8328 73.3929 41.1805 73.2197 41.5283 73.0674C42.085 73.8248 42.3059 73.9236 43.188 73.8226C43.3164 73.8072 43.4447 73.7753 43.5746 73.766C44.0522 73.735 44.2671 73.8876 44.3477 74.3627C44.4223 74.7985 44.6999 75.0015 45.0895 75.1014C45.2746 75.1487 45.4626 75.1766 45.6477 75.2126C45.6402 75.2435 45.6313 75.2745 45.6223 75.3054C43.8447 75.0839 42.0761 74.8326 40.6492 73.6218C40.3835 73.7515 40.1746 73.8526 39.9372 73.9669C42.7865 75.8711 46.594 75.9123 48.7059 74.7366C48.4626 74.6532 48.2328 74.5748 47.9969 74.4935C47.794 74.5677 47.5985 74.6511 47.397 74.7087C46.7567 74.8923 46.1268 75.0994 45.4373 74.9251C44.9567 74.8036 44.7686 74.6747 44.6835 74.175C44.6313 73.8763 44.5029 73.6454 44.2223 73.5342C43.9268 73.4166 43.6238 73.3054 43.3149 73.2394C42.8835 73.1457 42.4432 73.0972 42.0074 73.0293C42.1701 72.9479 42.3477 72.8788 42.5268 72.8757C43.388 72.8633 44.2492 72.8459 45.1074 72.8767C45.7761 72.9003 46.3656 73.1724 46.882 73.6053C47.0298 73.7311 47.188 73.8464 47.3522 73.9535C48.4044 74.6439 49.5462 74.8179 50.7611 74.5223C51.1089 74.4376 51.3701 74.2409 51.4701 73.8248C50.9955 73.8763 50.5522 73.9236 50.1089 73.9711C50.1029 73.936 50.097 73.9 50.0895 73.865C50.9313 73.7599 51.5537 73.2745 52.1298 72.7139C53.2432 71.6269 53.9716 70.2833 54.6298 68.8984C54.9477 68.2308 55.2313 67.5456 55.5298 66.8675C55.3402 67.0387 55.2223 67.2457 55.1029 67.4499C54.179 69.0242 53.1775 70.5439 51.894 71.8556C51.094 72.6717 50.2298 73.4033 49.2388 73.9C48.3358 73.7917 47.6522 73.3641 47.0388 72.7872C47.1507 72.65 47.2611 72.5469 47.3313 72.4224C47.5731 71.9988 47.8029 71.5693 48.0298 71.1385C48.294 70.6376 48.6223 70.2606 49.2641 70.2627C49.5641 70.2638 49.9417 70.2379 50.1492 70.0638C50.6059 69.6775 51.0925 69.6815 51.6164 69.7444C52.188 69.8135 52.7223 69.7135 53.2044 69.3941C53.6999 69.0654 54.1089 68.6573 54.3387 68.0773C53.4044 69.2756 52.2014 69.6238 50.7387 69.2684C50.8253 68.3102 50.5492 67.2644 51.294 66.4451C51.5701 66.4029 51.8701 66.4451 52.0253 66.3153C52.3955 66.0082 52.697 65.6188 53.0358 65.252C52.9313 65.2057 52.8746 65.1797 52.8253 65.1571C53.4044 64.9038 53.9671 64.6584 54.5298 64.4123C53.3671 65.0727 53.1671 66.3163 52.7044 67.4084Z" fill="white"/>
<path d="M29.2313 63.7403C30.1671 62.882 30.6193 61.7569 30.9611 60.573C30.988 60.4802 30.9791 60.3772 30.9895 60.2371C30.2134 60.7244 29.4746 61.153 28.5895 61.4456C29.3821 60.9068 30.1029 60.4121 30.8283 59.9206C31.3313 59.5786 31.4432 59.0747 31.4313 58.5101C31.4149 57.859 31.2029 57.2954 30.7059 56.8635C30.2895 56.502 29.8731 56.1351 29.4238 55.8168C28.991 55.5106 28.5164 55.2623 28.0597 54.9883C27.8641 54.916 27.6671 54.8441 27.4716 54.773C27.4865 54.7409 27.4999 54.7092 27.5134 54.6781C27.7014 54.7739 27.8895 54.8709 28.0776 54.9666C28.2313 55.01 28.3925 55.0366 28.5402 55.0996C29.5611 55.5363 30.5089 56.0889 31.3074 56.9265C31.3567 56.6265 31.3821 56.3402 31.3522 56.0599C31.2253 54.8109 30.6537 53.7569 29.8074 52.8677C29.1701 52.1981 28.4492 51.6077 27.7925 51.0059C28.7074 51.3242 29.5119 51.9002 30.2611 52.5853C29.9552 51.8377 29.3149 50.5075 28.7432 49.622L28.7447 49.6215L28.7417 49.6174C28.7268 49.5954 28.7119 49.5724 28.6985 49.5509C28.5746 49.3635 28.4552 49.1975 28.3432 49.0657C28.3417 49.0657 28.3402 49.0668 28.3373 49.0677C28.3373 49.068 28.3358 49.0692 28.3343 49.0695L27.5238 47.975L27.0268 49.9941L26.8373 50.6317H26.8402C26.8283 50.6693 26.8164 50.7063 26.8059 50.7441C25.9805 53.688 25.5388 56.7924 25.5388 60C25.5388 60.7738 25.5641 61.5415 25.6149 62.3029C25.6447 62.2948 25.6776 62.2854 25.7074 62.2772L25.7298 62.3142C25.6925 62.3308 25.6567 62.3483 25.6194 62.3648C25.6298 62.5214 25.6417 62.6781 25.6552 62.8336C27.4582 62.5471 29.1388 61.9063 30.6656 60.8192C30.4074 61.6229 30.0104 62.31 29.4477 62.8872C28.4223 63.9362 27.2044 64.5111 25.8731 64.8006C25.897 64.9726 25.9223 65.1438 25.9492 65.3147C26.291 65.2345 26.6283 65.1438 26.9611 65.0377C27.8014 64.7718 28.5731 64.3441 29.2313 63.7403Z" fill="white"/>
<path d="M38.6761 57.7259C38.5 57.084 38.5582 56.3864 37.8164 55.997C38.5313 56.0846 38.7179 56.881 38.6761 57.7259ZM39.2447 60.1897C39.4791 60.2237 39.688 60.4482 39.9074 60.5862C39.8865 60.6028 39.8642 60.6203 39.8433 60.6368C39.5806 60.5182 39.3283 60.3576 39.0522 60.2915C38.3836 60.1329 38.3537 60.1206 38.2866 59.3921C38.4328 59.8764 38.7418 60.1153 39.2447 60.1897ZM38.1343 57.6991C38.0731 57.3962 38.0134 57.0943 37.9522 56.7904C38.1328 57.0706 38.3686 57.3395 38.1343 57.6991ZM37.8075 59.7115C37.797 59.7115 37.7865 59.7115 37.7761 59.7124V58.8789C37.7865 58.8789 37.797 58.878 37.8075 58.878V59.7115ZM35.7746 62.038V61.1529C36.0119 61.391 36.0209 61.4992 35.7746 62.038ZM35.1791 63.9267C35.2313 63.5052 35.2746 63.1529 35.3209 62.7737C35.0671 62.6903 34.7627 62.5915 34.4597 62.4925C34.4642 62.4718 34.4686 62.4513 34.4716 62.4306C34.8253 62.5079 35.1776 62.5852 35.5403 62.6644C35.4283 63.0519 35.3149 63.4518 35.1791 63.9267ZM35.4761 54.8512C35.9388 54.8841 36.4015 54.9182 36.8642 54.951C35.5477 54.9655 34.394 55.3456 33.3149 56.2823C35.0716 56.3771 36.6254 56.7768 37.9552 57.8053C38.0179 57.7765 38.0731 57.7506 38.1239 57.7259C38.0925 57.8825 38.0597 58.0401 38.0224 58.2298C37.9209 58.1288 37.8731 58.0567 37.806 58.0165C36.5269 57.2353 35.1612 56.7616 33.6373 56.9428C32.8716 57.0346 32.2134 57.3601 31.6716 57.9464C31.7985 58.6244 31.6865 59.258 31.4328 59.901C31.2955 60.2535 31.094 60.6553 31.2776 61.0756C31.8612 62.4089 32.6642 63.5732 33.891 64.3965C34.3298 64.6913 34.8 64.9386 35.2567 65.2065C35.2462 65.2406 35.2358 65.2734 35.2268 65.3074C34.4477 65.1116 33.6672 64.917 32.806 64.7004C34.8776 66.4047 36.9403 66.3894 39.1313 64.8995C37.0328 67.8506 32.094 67.8165 30.3895 63.7001C30.5895 64.2967 30.7895 64.8933 31.0074 65.5506C30.7119 65.394 30.4895 65.2765 30.2672 65.1592C30.3298 65.36 30.4403 65.5115 30.5627 65.6485C31.7806 66.987 33.3283 67.5568 35.1015 67.5455C37.1507 67.5331 38.6253 66.5398 39.5627 64.7562C40.0119 63.9021 40.2104 62.9562 40.2895 61.9906C40.2985 61.8959 40.3209 61.8022 40.3358 61.7073C40.3716 61.7094 40.4059 61.7115 40.4403 61.7124C40.5298 62.3091 40.6179 62.9056 40.7239 63.6125C42.2194 62.1401 42.4388 60.4007 42.3313 58.5368C42.4104 58.8728 42.4895 59.2088 42.5686 59.5434C42.8 58.0609 42.5388 56.6822 41.7134 55.4353C41.2209 54.6915 40.5657 54.1228 39.6477 54.0174C38.4865 53.8858 37.3388 54.0135 36.2328 54.4059C35.9567 54.5049 35.7 54.6615 35.4358 54.7915C35.4492 54.8109 35.4627 54.8306 35.4761 54.8512Z" fill="white"/>
<path d="M81.3239 50.7121C81.0343 50.8913 80.7298 51.0274 80.494 51.2407C80.2463 51.4622 80.0657 51.757 79.8552 52.0197C80.103 51.3098 80.4537 50.7142 81.3239 50.7121ZM81.8851 49.8579C81.9104 49.8909 81.9358 49.924 81.9597 49.9568C81.6358 50.164 81.3089 50.3721 80.9806 50.5792C80.9537 50.533 80.9254 50.4865 80.9 50.4401C81.2283 50.2464 81.5567 50.0527 81.8851 49.8579ZM82.8313 56.1721C82.9119 56.4977 82.894 56.8615 83.2537 57.1222H84.5865C84.5865 57.1521 84.5895 57.1828 84.591 57.2139C84.2686 57.2467 83.9478 57.287 83.6239 57.3106C83.0492 57.353 82.8358 57.2159 82.7582 56.644C82.694 56.1815 82.5089 55.8321 82.1254 55.5839C82.5433 55.594 82.7328 55.7539 82.8313 56.1721ZM83.0224 51.187C83.0224 51.1995 83.0224 51.213 83.0254 51.2262H82.4612C82.4597 51.213 82.4582 51.1995 82.4552 51.187H83.0224ZM83.891 55.3736C83.7433 55.7321 83.4209 55.8816 83.0224 55.7249C83.3418 55.5962 83.6343 55.4776 83.891 55.3736ZM83.5821 53.9485C84.0433 54.1176 84.4492 54.167 84.706 54.3874C84.9567 54.6028 85.0582 54.9934 85.2283 55.3067C85.2045 55.3282 85.1821 55.3488 85.1597 55.3695C85.0522 55.2004 84.9089 55.0437 84.8418 54.8595C84.6865 54.4339 84.4224 54.2185 83.9567 54.2771C83.8791 54.2865 83.797 54.2607 83.7119 54.2506C83.4045 53.9342 83.1 53.6189 82.806 53.3128C83.2851 53.2542 83.3925 53.7807 83.5821 53.9485ZM78.2268 54.237C78.1373 54.7461 78.1358 55.2716 78.094 55.7898C79.2851 53.3582 79.6731 52.8449 81.8627 50.9224C81.9448 50.9831 82.0298 51.0449 82.1 51.0955C80.291 52.44 78.9851 54.0813 78.6671 56.3689C79.3567 54.4286 80.491 52.8192 82.191 51.627C82.0895 51.828 81.9597 52.0083 81.8313 52.1886C81.1657 53.1201 80.5388 54.0774 80.3656 55.2376C80.2985 55.7013 80.0358 55.9588 79.6672 56.1649C79.5686 56.2204 79.4582 56.2555 79.2895 56.3277C79.7358 56.4947 80.0283 56.3307 80.297 56.1124C80.4716 55.9691 80.6149 55.7856 80.7836 55.6342C81.1448 55.3148 81.6642 55.2953 82.0791 55.5713C81.7433 55.5765 81.4045 55.5807 81.0806 55.5849C80.9567 55.8991 80.8597 56.1216 80.7806 56.3515C80.7089 56.5667 80.6388 56.7862 80.5985 57.0097C80.488 57.6209 80.8373 58.1122 81.4522 58.203C81.6761 58.237 81.9089 58.2442 82.1358 58.2288C83.9298 58.105 85.5463 57.5879 86.7522 56.1422C87.1089 55.7165 87.5328 55.3446 88.0492 55.1056C87.7657 55.5992 87.3209 55.9804 87.1388 56.545C88.7806 55.4024 90.3806 54.2052 92.3746 53.7106C92.3537 53.6568 92.3343 53.6034 92.3149 53.5488C91.588 53.6828 90.8597 53.8156 90.1074 53.9536C90.8239 53.4828 91.6239 53.3446 92.4224 53.1922C92.1851 52.7431 91.9209 52.5183 91.4627 52.341C90.4821 51.961 89.4582 51.898 88.4313 52.0155C87.5 52.1228 86.5776 52.3092 85.6358 52.4637C87.1522 51.7858 88.7104 51.3612 90.3985 51.4489C90.3388 51.3498 90.2761 51.283 90.2015 51.2386C89.0283 50.5482 87.7477 50.2 86.4015 50.1001C85.0821 50.0022 83.8045 50.1948 82.6074 50.7986C82.503 50.8512 82.3686 50.844 82.2463 50.8656C82.2388 50.8225 82.2283 50.778 82.2209 50.7347C83.4074 49.9713 84.7716 49.8322 86.2164 49.6961C85.5925 49.0407 84.8194 49.0316 84.088 48.8452C84.903 48.7606 85.7149 48.675 86.5298 48.5906C86.5298 48.5545 86.5268 48.5194 86.5268 48.4843C85.4865 48.473 84.4477 48.434 83.4089 48.4607C82.6448 48.4813 81.8806 48.5906 81.2164 49.0316C80.0343 49.8167 79.0612 50.8112 78.2731 51.9856C77.8388 52.6306 77.6701 53.3479 77.6895 54.1834C78.0164 53.6333 78.3045 53.1468 78.5925 52.6604C78.5 53.2067 78.3209 53.7136 78.2268 54.237Z" fill="white"/>
<path d="M88.5208 58.1763C88.9014 58.1803 89.0328 58.2763 89.2537 58.7924C88.979 58.5616 88.7268 58.3492 88.5208 58.1763ZM89.3432 56.9563C89.3253 56.9264 89.3089 56.8966 89.294 56.8676C90.1149 56.2957 90.9388 55.7249 91.8522 55.0891C91.688 55.1098 91.6358 55.1015 91.5999 55.1222C90.6089 55.6786 89.588 56.1916 88.6373 56.8089C87.4925 57.5509 86.4537 58.4607 85.2835 59.1551C83.7417 60.07 82.097 60.7121 80.2567 59.7909C80.5716 60.4616 81.1328 60.6018 81.7611 60.6007C82.8044 60.5987 83.7805 60.2824 84.7447 59.9319C85.4522 59.6754 86.1447 59.3755 86.8462 59.0954C85.785 59.9433 84.6044 60.5584 83.288 61.0078C85.5999 62.3398 90.7089 61.2818 92.4417 59.664C89.9343 60.7481 87.3865 61.5857 84.6029 60.9718C86.6402 60.781 88.5686 60.2431 90.394 59.2539C90.1746 59.0324 89.988 59.0891 89.8164 59.1975C89.6104 59.3261 89.4223 59.4837 89.2179 59.6148C88.8193 59.8681 88.5134 59.7939 88.2432 59.3601C88.7164 59.7775 89.079 59.5291 89.4581 59.2179C89.982 58.7863 90.2581 58.8058 90.7761 59.25C91.1328 59.557 91.4581 59.5745 91.8268 59.2727C91.9999 59.1303 92.1432 58.948 92.2865 58.7727C92.6343 58.3515 92.9746 57.9228 93.3417 57.4694C92.9716 57.49 92.7178 57.6745 92.5119 57.9413C92.285 58.236 92.0731 58.5482 91.8208 58.8191C91.594 59.0603 91.3074 59.1952 90.9507 59.0181C91.2731 58.677 91.5865 58.373 91.8671 58.0443C92.279 57.5642 92.697 57.084 93.0671 56.5697C93.2477 56.3175 93.4402 56.0979 93.6462 55.9104C93.6059 55.5755 93.5596 55.2428 93.5104 54.9109C93.3776 54.9572 93.2462 55.01 93.1149 55.0675C92.4611 55.3551 91.8462 55.727 91.2074 56.0473C90.591 56.3587 89.9641 56.6543 89.3432 56.9563Z" fill="white"/>
<path d="M29.9776 70.3173C29.7686 70.2235 29.5612 70.1307 29.3522 70.037C29.3686 69.9926 29.3866 69.9483 29.403 69.9041C29.6045 70.0195 29.806 70.1349 30.0075 70.2501C29.997 70.2719 29.9865 70.2946 29.9776 70.3173ZM29.1313 70.9933C28.8478 70.7437 29.0134 70.4686 29.0283 70.2089C28.9074 70.1379 28.7895 70.0679 28.6716 69.9979C28.6895 69.9844 28.7089 69.97 28.7268 69.9567C28.8597 69.9979 28.9925 70.0391 29.1313 70.0812V70.9933ZM28.5612 68.5604C28.5522 68.5759 28.5433 68.5913 28.5328 68.6068C28.4537 68.8376 28.3761 69.0704 28.297 69.3024C28.2462 69.2797 28.1955 69.2559 28.1448 69.2332C28.2746 69.025 28.403 68.8159 28.5328 68.6068C28.5388 68.5883 28.5448 68.5707 28.5507 68.5522C28.5567 68.5461 28.5627 68.5386 28.5701 68.5325C28.6791 68.1431 28.7925 68.0616 29.1492 68.0947C29.297 68.108 29.4463 68.1185 29.606 68.2194C29.3567 68.2368 29.106 68.2543 28.8134 68.275C28.7463 68.345 28.6597 68.4388 28.5701 68.5325C28.5657 68.5419 28.5642 68.551 28.5612 68.5604ZM31.7701 72.9632C31.7806 71.6155 31.0537 68.6901 30.4567 67.6033C30.3134 68.0824 30.1701 68.5676 30.0254 69.053C29.8657 67.4579 29.7746 65.8876 28.9552 64.545C27.9716 64.955 27.0268 65.3497 26.0239 65.7692C26.2209 66.9376 26.4791 68.0853 26.794 69.2095C26.9298 69.3156 27.0642 69.4219 27.1985 69.528C27.4224 69.5289 27.6448 69.5146 27.8671 69.5352C28.0731 69.5549 28.2776 69.6113 28.4671 69.7164C28.1925 69.7164 27.9149 69.7352 27.6418 69.7092C27.4836 69.6949 27.3313 69.6083 27.1746 69.5537C27.0492 69.4404 26.9224 69.327 26.7955 69.2128C26.7866 69.2053 26.7776 69.1982 26.7686 69.1889C26.7149 69.1415 26.6597 69.0931 26.606 69.0447C26.606 69.0498 26.6045 69.054 26.603 69.0591C26.5866 69.1312 26.5403 69.2219 26.5686 69.2612C26.6866 69.431 26.8134 69.597 26.9492 69.7546C26.9821 69.7938 27.0164 69.8328 27.0522 69.871C28.1179 71.0446 29.4343 71.8679 30.8463 72.5562C31.1403 72.6995 31.4463 72.8212 31.7701 72.9632Z" fill="white"/>
<path d="M30.3074 52.0675C30.6418 52.7827 30.9089 53.5297 31.1761 54.1899C31.8701 54.4805 32.3731 54.359 32.7791 53.8872C32.9567 53.68 33.1194 53.4472 33.2328 53.2C33.4134 52.806 33.5462 52.3905 33.7149 51.9385C33.9447 53.3087 33.8582 54.5905 33.2238 55.8163C33.294 55.757 33.3731 55.7057 33.4313 55.6364C33.5029 55.55 33.5671 55.4532 33.6194 55.3533C34.3104 54.0596 34.3089 52.6735 33.8014 51.3827C33.2985 50.1005 31.0552 48.1797 29.6194 47.2341V47.2339L28.0835 46.1587L27.588 47.6321L28.4104 48.5505C28.7985 49.2862 29.9447 51.2933 30.3074 52.0675Z" fill="white"/>
<path d="M32.9731 49.6828C33.8343 50.5946 34.4731 51.6549 34.5567 52.9522C34.594 53.5301 34.5627 54.1134 34.5627 54.6936C35.3388 53.3664 34.8746 52.0155 34.6179 50.6688C34.6552 50.6595 34.691 50.6513 34.7269 50.6431C35.0164 51.4149 35.306 52.1876 35.6045 52.985C35.6298 52.9171 35.6597 52.8747 35.6597 52.8327C35.7045 51.4221 35.3448 50.13 34.5045 48.9852C33.809 48.0371 32.894 47.3428 31.8567 46.8183C31.5477 46.6615 30.5731 46.0721 29.6537 45.5291L29.6492 45.5267C29.4045 45.3825 29.1642 45.2416 28.9418 45.113C28.9403 45.115 28.9388 45.117 28.9388 45.1189L28.603 44.9264L28.1851 45.9044L29.6373 46.9192C30.6537 47.7064 32.4269 49.1033 32.9731 49.6828Z" fill="white"/>
<path d="M64.103 45.9477H64.1687V46.2629H64.103V45.9477ZM64.5358 45.6889C64.6299 45.9003 64.7239 46.1125 64.8179 46.3238C64.7941 46.3341 64.7717 46.3453 64.7478 46.3567C64.6373 46.1526 64.5269 45.9497 64.4149 45.7467C64.4552 45.7271 64.4955 45.7086 64.5358 45.6889ZM61.2105 47.3335C61.1134 47.0686 61.0164 46.804 60.9179 46.5401C60.9612 46.5277 61.0045 46.5164 61.0478 46.505C61.1433 46.7658 61.2403 47.0265 61.3358 47.2871C61.294 47.3026 61.2523 47.318 61.2105 47.3335ZM60.894 45.9023C60.3358 46.0661 59.7896 46.3011 59.3776 46.7616C59.5299 46.6967 59.6836 46.6319 59.8612 46.5567C59.9418 46.7874 60.012 46.9843 60.0821 47.1812C59.9761 47.1015 59.8717 47.0219 59.7657 46.9419C59.7747 47.2537 59.7746 47.2537 60.0478 47.3168C60.2552 47.9979 60.8642 48.3258 61.3597 47.961C61.7732 47.6559 62.2135 47.6034 62.6851 47.5653C63.0254 47.5385 63.3627 47.4859 63.6881 47.4458C63.4746 47.2459 63.3 47.0822 63.1254 46.9173C63.1508 46.8916 63.1747 46.8667 63.1985 46.841V46.3413C63.2836 46.5246 63.3672 46.705 63.4493 46.8864C63.4896 46.8761 63.5299 46.8656 63.5702 46.8553C63.4135 46.3495 63.4522 45.8725 63.797 45.4243C63.8239 45.8982 63.8493 46.3722 63.8761 46.8543C64.3687 46.7967 64.5149 47.5531 65.112 47.2788C65.1672 47.2161 65.2597 47.1131 65.3941 46.9626C65.397 47.0482 65.4 47.1018 65.403 47.1562C65.4731 46.4298 65.2478 45.8755 64.7537 45.4397C64.4836 45.2006 64.1687 45.077 63.8135 45.1614C62.8373 45.3964 61.8567 45.62 60.894 45.9023Z" fill="white"/>
<path d="M62.9508 43.0997C63.0538 43.2584 63.1538 43.4181 63.2553 43.5778C63.2254 43.5975 63.1955 43.6179 63.1642 43.6376C63.0627 43.4788 62.9612 43.3201 62.8582 43.1604C62.8896 43.1409 62.9209 43.1202 62.9508 43.0997ZM59.3836 44.4628C59.2299 44.3413 59.1687 44.293 59.012 44.1702C59.0761 44.467 59.1149 44.6545 59.1642 44.8831C59.2373 44.7894 59.2717 44.7463 59.3105 44.6967C59.3597 44.7772 59.4 44.8482 59.4463 44.9152C59.9523 45.6715 60.2314 45.7116 60.9911 45.1934C61.1523 45.0842 61.3806 45.0491 61.5806 45.0316C61.9433 45.0007 62.303 44.9843 62.6448 44.7927C62.5134 44.6484 62.409 44.533 62.3045 44.4175C62.3418 44.4061 62.3791 44.3948 62.4179 44.3834C62.3851 43.8766 61.9015 43.4346 62.0896 42.8245C62.3791 43.6137 62.5746 44.3897 63.4687 44.6204C63.6329 44.5463 63.7881 44.4752 63.9433 44.4042C63.9358 44.2693 63.9284 44.1558 63.9224 44.0424C63.8791 43.006 62.7836 42.1207 61.6463 42.5475C60.7015 42.9009 59.7627 43.2634 58.9194 43.8322C58.9 43.8446 58.8941 43.8776 58.8702 43.926C58.9717 43.9199 59.0582 43.9136 59.1702 43.9064C59.2314 44.064 59.2896 44.2166 59.3836 44.4628Z" fill="white"/>
<path d="M62.6104 49.7571C62.8477 50.0618 62.7015 50.2772 62.5731 50.4938C62.585 50.2723 62.5955 50.0496 62.6104 49.7571ZM61.3253 49.5015C61.2373 49.6312 61.1597 49.7424 61.0791 49.863C61.2403 50.0742 61.4104 50.2898 61.5731 50.5102C61.8627 50.9006 62.4149 51.0204 62.7716 50.6832C63.0701 50.4001 63.388 50.3741 63.7492 50.3627C64.2074 50.3484 64.6642 50.3093 65.1731 50.2772C64.9373 50.0372 64.7686 49.8672 64.6015 49.6974C64.6224 49.6756 64.6433 49.6539 64.6656 49.6323C64.7373 49.6766 64.8089 49.722 64.9 49.7765C64.8597 49.4581 64.8239 49.1656 64.7806 48.8174C64.7283 48.946 64.7015 49.0151 64.6477 49.1439C64.5522 48.6678 64.7015 48.3556 65.0149 48.0908C65.0567 48.4989 65.094 48.8832 65.1328 49.2675C65.1701 49.2635 65.2089 49.2593 65.2477 49.2551C65.2448 49.1954 65.2358 49.1357 65.2403 49.0759C65.2433 49.0336 65.2627 48.9924 65.2791 48.9347C65.5731 49.2438 65.297 49.8157 65.9134 49.9775C65.8656 49.2048 65.7 48.54 65.2134 47.9435C64.0791 47.9805 62.9761 48.1454 61.8865 48.4153C61.8477 48.4257 61.8343 48.5381 61.8074 48.603C62.1358 48.9078 62.2716 49.3036 62.3179 49.7415C62.1328 49.3757 61.9477 49.0099 61.7627 48.6442C61.4865 48.3854 61.2507 48.5865 61.0074 48.7071L60.997 48.6926C60.997 48.6932 60.997 48.6939 60.997 48.6945L60.9955 48.6932C60.9865 48.7047 60.9761 48.7177 60.9656 48.7299C60.9791 48.723 60.991 48.7162 61.0044 48.7095C61.1104 48.9741 61.2164 49.2368 61.3253 49.5015Z" fill="white"/>
<path d="M65.6612 51.12C65.6821 52.336 65.9552 52.7964 66.7477 52.7879C66.6373 52.1611 66.5298 51.5496 66.4224 50.939C66.2343 50.9276 66.1284 50.9212 65.9224 50.9088C66.0313 51.4364 66.1283 51.9075 66.2254 52.3785C66.197 52.3846 66.1672 52.3909 66.1388 52.397C66.0283 51.9205 65.9179 51.4436 65.8 50.9308C64.2627 51.204 62.7239 51.4775 61.1776 51.7521C61.1776 52.0399 61.1776 52.2628 61.1776 52.5599C61.1104 52.3093 61.0642 52.1322 61.0089 51.9282C60.5209 52.4609 60.6 53.2805 61.2119 53.8269C61.1045 53.6231 61.0224 53.4918 60.9657 53.3505C60.9089 53.2136 60.8791 53.0661 60.8373 52.9234C60.8582 52.9142 60.8806 52.9051 60.903 52.896C61.0298 53.0317 61.1582 53.1672 61.2851 53.303C61.2985 53.1728 61.3134 53.0433 61.3254 52.9282C61.7463 52.7623 62.203 52.8154 62.5433 52.5117C62.5791 52.807 62.6134 53.0982 62.6582 53.4651C62.9866 53.0137 62.997 52.5712 62.9567 52.1152C62.994 52.1109 63.0328 52.1067 63.0701 52.1024C63.1895 52.3911 63.3089 52.6799 63.4403 52.9979C64.1343 53.0245 64.8074 52.9587 65.3686 52.5664C65.2671 52.2578 65.1865 52.0105 65.106 51.7628C65.1358 51.7537 65.1627 51.7443 65.1925 51.7351C65.2448 51.8237 65.2985 51.9124 65.3865 52.0581C65.3254 51.2657 65.3254 51.2657 65.6612 51.12Z" fill="white"/>
<path d="M91.9686 65.621C91.1388 67.175 90.1492 68.6212 89.0626 70.0055C87.4582 72.0461 85.4761 73.5273 82.9507 74.2262C82.5432 74.3391 82.1388 74.4636 81.7328 74.5828C82.6149 74.6227 83.4507 74.4449 84.2671 74.1522C85.688 73.6421 87.0014 72.9665 88.088 71.8797C89.2477 70.7191 90.2044 69.4131 90.991 67.9833C91.4432 67.1625 91.8268 66.3052 92.2432 65.4641C92.2044 65.4365 92.1671 65.4091 92.1313 65.3815C92.0761 65.461 92.0134 65.5362 91.9686 65.621Z" fill="white"/>
<path d="M89.5328 62.9346C89.3239 62.9479 89.1164 62.9841 88.9089 63.0098C90.2462 63.1943 91.5343 63.0788 92.7821 62.5379C93.1463 62.3801 93.497 62.2071 93.8284 62.0165C93.8388 61.835 93.8492 61.6537 93.8552 61.4714C92.603 62.3411 91.1597 62.8314 89.5328 62.9346Z" fill="white"/>
<path d="M71.5388 77.3862C70.9358 77.4985 70.3522 77.4949 69.7671 77.2594C68.9358 76.9247 68.2269 76.4082 67.591 75.8026C66.8149 75.0638 66.0851 74.2756 65.3358 73.5089C66.3716 74.9468 67.5015 76.2901 69.0015 77.2852C69.697 77.7483 70.4403 77.9831 71.2612 77.8247C71.7851 77.724 72.3149 77.5856 72.8 77.3698C73.9119 76.8738 74.9925 76.3086 76.1 75.7946C76.6627 75.5329 77.2478 75.3208 77.8224 75.0864C76.7045 75.3223 75.6418 75.7101 74.6254 76.2082C73.6298 76.6947 72.6388 77.1807 71.5388 77.3862Z" fill="white"/>
<path d="M59.5806 51.1275C59.6269 51.311 59.6582 51.4407 59.7045 51.6333C59.397 51.8613 59.0926 52.0866 58.7359 52.3516C58.6299 52.1404 58.5732 52.028 58.5015 51.8827C58.8508 51.6386 59.1866 51.4027 59.5806 51.1275ZM58.8627 52.5421C59.0642 52.3989 59.2075 52.2559 59.3791 52.1816C60.0687 51.8828 60.2478 51.5056 59.9135 50.8596C59.7463 50.538 59.4881 50.2629 59.2642 49.9559C59.3 49.9014 59.3553 49.8148 59.4105 49.7283C59.2672 49.755 59.1717 49.8159 59.0806 49.8807C58.9941 49.9436 58.9105 50.0105 58.8209 50.0786C58.8926 50.1527 58.9373 50.1981 59.006 50.2711C58.1463 50.2351 57.6165 50.7421 57.6582 51.4974C58.0478 51.8353 58.4314 52.1693 58.8627 52.5421Z" fill="white"/>
<path d="M32.9627 74.4336C31.4866 74.0821 30.0776 73.5454 28.6866 72.9518C28.4343 72.8448 28.1866 72.7322 27.9403 72.6139C28.0075 72.7828 28.0761 72.9508 28.1463 73.1178C28.3045 73.1899 28.4672 73.2599 28.6299 73.3269C29.994 73.8875 31.403 74.3387 32.7955 74.8272C33 74.8982 33.2254 74.9096 33.4836 74.956C33.2702 74.5242 33.2746 74.5078 32.9627 74.4336Z" fill="white"/>
<path d="M82.4044 72.1862C80.4298 72.3475 78.7985 73.3547 77.1462 74.3079C79.0701 74.0181 80.8671 73.4202 82.4044 72.1862Z" fill="white"/>
<path d="M58.1209 46.1208C57.9926 45.9587 57.8627 45.7963 57.7343 45.6339C57.906 45.763 58.2314 45.7718 58.1209 46.1208ZM56.3627 46.9176C56.6 47.0267 56.7522 47.0966 56.9328 47.1796C57.4582 47.0032 57.8627 46.6533 58.1224 46.1342C58.2552 46.246 58.3881 46.3578 58.5209 46.4694C58.5284 46.2126 58.4911 45.9584 58.3702 45.7506C58.1388 45.3475 57.7134 45.3069 57.2299 45.3157C57.403 45.1297 57.5224 45.0006 57.6433 44.8712C57.0224 45.4615 56.1254 45.9049 56.3627 46.9176Z" fill="white"/>
<path d="M58.6493 49.3475C58.4567 49.8082 58.0806 50.0664 57.609 50.265C57.5343 50.1212 57.4627 49.9835 57.3881 49.8411C57.794 49.5545 58.1776 49.2841 58.5612 49.0133C58.5955 49.1079 58.6299 49.2024 58.6627 49.2967C58.8582 49.2888 58.8269 49.1576 58.8045 49.0261C58.7239 48.5582 58.4746 48.2032 58.0433 47.9629C58.209 47.7802 58.3478 47.6282 58.4866 47.4764C58.6776 47.3302 58.8687 47.1839 59.0597 47.0376C59.0313 47.0041 59.003 46.9703 58.9761 46.9369C58.797 47.0999 58.6179 47.2627 58.4388 47.4257C58.1612 47.63 57.8821 47.8342 57.606 48.0359C57.8119 48.1617 57.9672 48.2569 58.1224 48.3524C57.5343 48.1348 57.191 48.1909 56.8582 48.6076C56.5149 49.0384 56.4418 49.516 56.7149 50.0184C56.7493 50.0805 56.7955 50.1354 56.8955 50.2776C56.8657 50.0639 56.8507 49.9558 56.8239 49.7676C57.1299 50.0067 57.3657 50.1921 57.6119 50.3841C58.3403 50.2357 58.606 49.976 58.6493 49.3475Z" fill="white"/>
<path d="M58.6493 49.3475C58.6553 49.3344 58.6612 49.3226 58.6672 49.3091C58.6657 49.3051 58.6642 49.3009 58.6627 49.2968C58.6598 49.2969 58.6568 49.2978 58.6538 49.2978C58.6523 49.3151 58.6508 49.3308 58.6493 49.3475Z" fill="white"/>
<path d="M57.1716 42.5708C57.9671 42.5644 58.1836 43.2403 58.5627 43.8263C58.6164 43.6724 58.6671 43.6002 58.6492 43.5651C58.4447 43.1791 58.2522 42.7839 58.0089 42.4223C57.8477 42.1818 57.5716 42.1087 57.2731 42.1293C56.5074 42.1821 55.8477 42.7152 55.606 43.5255C56.0149 43.006 56.4552 42.5763 57.1716 42.5708Z" fill="white"/>
<path d="M38.0568 67.1266C37.4956 67.3602 36.912 67.6036 36.2612 67.8743C36.6851 68.1208 37.0866 68.3539 37.4777 68.582C37.6911 68.0464 37.8777 67.5755 38.0568 67.1266Z" fill="white"/>
<path d="M65.9836 50.0587C66.2358 49.9805 66.4045 49.9284 66.5686 49.8775C66.6104 49.9634 66.6507 50.0494 66.7388 50.237C66.7164 49.1014 66.203 48.233 65.5537 48.1809C66.0015 48.7184 66.0119 49.3527 65.9836 50.0587Z" fill="white"/>
<path d="M51.0284 68.2083C51.3687 67.6884 51.7 67.1802 52.0642 66.625C51.794 66.6089 51.5926 66.5969 51.3702 66.5835C50.9687 67.0419 50.8343 67.6956 51.0284 68.2083Z" fill="white"/>
<path d="M55.6478 58.467C54.8239 58.3401 54.0806 58.3088 53.3925 58.0961C52.7104 57.8849 52.0836 57.4913 51.4015 57.1624C52.5597 58.3756 54 58.5695 55.6478 58.467Z" fill="white"/>
<path d="M66.8164 52.7914C66.9253 52.7855 67.0283 52.7795 67.1358 52.7735C67.1074 52.9813 67.0836 53.1532 67.0597 53.3249C67.3746 52.2807 67.1552 51.2941 66.6492 51.1014C66.7045 51.6573 66.7612 52.225 66.8164 52.7914Z" fill="white"/>
<path d="M82.5299 73.8406C83.5956 73.5522 84.4075 72.5003 84.012 71.567C83.8583 72.5261 83.3627 73.2336 82.5299 73.8406Z" fill="white"/>
<path d="M93.7791 62.75V62.7491L93.7866 62.6407C92.9492 62.9345 92.1776 63.2066 91.3955 63.4806C92.3463 63.7269 93.0224 63.2209 93.7791 62.75Z" fill="white"/>
<path d="M61.2567 53.993C62.3716 54.6766 63.5045 54.3516 64.5224 54.2604C64.0701 54.2604 63.5179 54.2938 62.9716 54.2512C62.4209 54.208 61.8761 54.0896 61.2567 53.993Z" fill="white"/>
<path d="M57.8045 62.329C57.4597 62.9385 57.1597 63.4705 56.8582 64.0024C56.894 64.0251 56.9299 64.0478 56.9642 64.0705C57.2821 63.6721 57.5985 63.2736 57.9075 62.8854C57.8985 62.7593 57.8955 62.6621 57.8851 62.566C57.8791 62.5236 57.8582 62.4832 57.8045 62.329Z" fill="white"/>
<path d="M57.9836 47.3879C58.2627 47.2048 58.3806 46.9419 58.3716 46.559C58.0358 46.9158 57.7552 47.2142 57.4642 47.523C57.7164 47.7569 57.8358 47.4849 57.9836 47.3879Z" fill="white"/>
<path d="M63.6806 71.1561C64.206 71.3629 64.6164 71.5242 65.0254 71.6859C65.0373 71.6624 65.0478 71.6388 65.0597 71.6156C64.7836 71.4326 64.506 71.2496 64.2045 71.0494C64.0806 71.0747 63.9403 71.1033 63.6806 71.1561Z" fill="white"/>
<path d="M61.5165 53.5232C61.8836 53.536 62.2045 53.411 62.5135 53.1338C62.0627 53.2047 61.6836 53.2644 61.3045 53.3238C61.3747 53.3984 61.4433 53.5207 61.5165 53.5232Z" fill="white"/>
<path d="M61.3044 53.3237C61.3015 53.3206 61.2985 53.3169 61.2955 53.3139C61.291 53.3103 61.288 53.3064 61.285 53.3029C61.2835 53.3111 61.2835 53.319 61.282 53.3272C61.2895 53.3261 61.297 53.3249 61.3044 53.3237Z" fill="white"/>
<path d="M60.9657 48.73C60.5507 48.9554 60.1343 49.1809 59.7179 49.4061C59.7403 49.4467 59.7627 49.4873 59.7836 49.5277C60.097 49.3528 60.4164 49.1879 60.7179 48.9974C60.8179 48.9349 60.888 48.8261 60.9657 48.73Z" fill="white"/>
<path d="M48.6194 71.2121C48.8239 70.9822 49.0284 70.7522 49.2314 70.5221C49.1851 70.4837 49.1373 70.4454 49.0896 70.4069C48.906 70.6528 48.7224 70.8987 48.5388 71.1446C48.5657 71.1672 48.5926 71.1895 48.6194 71.2121Z" fill="white"/>
<path d="M82.012 47.9336C82.012 47.9403 82.0075 47.9451 82.0075 47.9516C82.012 47.9485 82.0165 47.9451 82.0224 47.9419L82.012 47.9336Z" fill="white"/>
<path d="M82.0075 47.9517C81.7433 48.129 81.4806 48.3061 81.2164 48.4834C81.5448 48.3961 81.9239 48.3826 82.0075 47.9517Z" fill="white"/>
<path d="M32.8731 73.2175C32.9895 73.3463 33.1059 73.4748 33.2239 73.6036C33.1462 73.4476 33.0686 73.2913 32.9925 73.1354C32.9522 73.1625 32.9119 73.19 32.8731 73.2175Z" fill="white"/>
<path d="M33.2552 73.6381C33.2448 73.6265 33.2343 73.615 33.2239 73.6035C33.2313 73.6183 33.2373 73.6329 33.2448 73.6477V73.6473C33.2582 73.6575 33.2701 73.668 33.2821 73.6793C33.2731 73.6661 33.2642 73.6514 33.2552 73.6381Z" fill="white"/>
<path d="M66.897 70.1498C66.1224 69.4883 65.3478 68.8267 64.5567 68.151C64.4955 68.1643 64.4164 68.1786 64.3403 68.2005C64.3149 68.2076 64.297 68.2347 64.2433 68.2801C64.997 69.0965 65.9089 69.6795 66.897 70.1498Z" fill="white"/>
<path d="M78.6462 62.425C78.1209 62.9156 77.6597 63.3589 77.3835 63.9683C77.8462 63.5751 78.3104 63.1819 78.7925 62.7748C78.7507 62.6774 78.7164 62.5921 78.6462 62.425Z" fill="white"/>
<path d="M78.1955 64.0119C78.4284 63.8181 78.7478 63.7213 78.9015 63.4388C78.8731 63.4036 78.8433 63.3684 78.8134 63.3331C78.5806 63.5276 78.3478 63.7222 78.1179 63.9166C78.1433 63.9485 78.1687 63.9801 78.1955 64.0119Z" fill="white"/>
<path d="M56.5955 52.3411C55.9627 51.9883 55.3284 51.6342 54.6866 51.2759C54.3761 51.5387 54.0836 51.786 53.7045 52.1063C54.8045 52.466 55.803 52.7926 56.8642 53.1399C56.7552 52.8159 56.6776 52.5863 56.5955 52.3411Z" fill="white"/>
<path d="M57.191 40.938C57.2508 40.9339 57.3089 40.9319 57.3672 40.9319C58.0642 40.9319 58.6433 41.2251 59.0015 41.7571C59.109 41.9182 59.2045 42.0795 59.2955 42.24C59.4104 42.1825 59.5284 42.1279 59.6448 42.074C57.8716 38.3677 56.5627 35.6115 56.2537 34.8951C55.5746 33.313 54.8567 31.7479 54.1388 30.1825C54.0089 29.8957 53.8433 29.6089 53.6298 29.3821C52.9567 28.6716 51.6582 28.9079 51.3 29.8113C51.1448 30.207 51.094 30.6437 50.9925 31.0598C50.8985 31.4404 50.8403 31.8377 50.6866 32.1921C50.6164 32.3589 50.3567 32.5389 50.1821 32.5407C50.0045 32.5427 49.797 32.3589 49.6552 32.2072C49.5507 32.0927 49.5358 31.8977 49.4716 31.7422C49.2925 31.2997 48.9284 31.071 48.4597 31.0992C48.094 31.1198 47.8284 31.3449 47.7508 31.8434C47.6164 32.6925 47.5448 33.551 47.4463 34.406C47.406 34.7397 47.3955 35.0807 47.3164 35.407C47.2776 35.5719 47.1179 35.7069 46.9224 35.9825C46.7358 35.647 46.606 35.4537 46.5179 35.2437C46.3955 34.9515 46.3388 34.6309 46.1955 34.3516C45.9776 33.9242 45.6313 33.8155 45.2657 34.003C44.9582 34.1622 44.8687 34.4621 45.0403 34.8801C45.1687 35.1894 45.3433 35.4819 45.4821 35.7874C46.7373 38.5673 47.9761 41.3569 49.2433 44.1312C49.2746 44.1989 49.3104 44.277 49.3493 44.3594C49.4313 43.9521 49.6015 43.57 49.8537 43.2388C50.3806 42.5482 51.209 42.1522 52.1284 42.1522C52.2806 42.1522 52.4373 42.1634 52.5925 42.1851C53.3657 42.2945 54.0164 42.5246 54.5701 42.881C55.0209 41.7703 56.0179 41.0189 57.191 40.938Z" fill="#EE252C"/>
<path d="M72.8075 69.8578H72.9508C72.9448 69.8418 72.9373 69.825 72.9299 69.8087C72.8896 69.8248 72.8523 69.8436 72.8075 69.8578Z" fill="#EE252C"/>
<path d="M80.4239 75.6853C80.2403 75.3855 80.3895 75.1586 80.5313 74.9393C80.6254 74.7967 80.7179 74.6558 80.8134 74.5152C80.2582 74.7578 79.6716 74.9668 79.0433 75.1347C78.9089 75.2167 78.7627 75.2626 78.6164 75.2361C78.4194 75.2817 78.2224 75.3262 78.0224 75.3653L78.2746 76.192C78.0895 76.2668 77.9059 76.3395 77.7209 76.4123C77.3268 76.5665 76.9567 76.7122 76.603 76.8774C76.1433 77.0911 75.6761 77.3199 75.2224 77.5414C74.5925 77.8487 73.9448 78.1665 73.2851 78.4602C72.7776 78.6859 72.191 78.8617 71.488 78.9972C71.2433 79.0441 70.997 79.068 70.7522 79.068C69.9403 79.068 69.1283 78.8028 68.3403 78.2796C66.6895 77.1844 65.4955 75.7498 64.5447 74.4507L64.3 74.8689C65.397 76.9134 66.4955 78.958 67.597 80.9996C67.8179 81.4101 68.0671 81.8095 68.3403 82.188C69.5761 83.9053 70.7597 84.312 72.9433 83.862C73.403 83.7665 73.8642 83.5265 74.2462 83.2474C76.9686 81.2583 79.3433 78.9059 81.4492 76.2796C81.5761 76.1199 81.6955 75.952 81.8045 75.7784C81.7627 75.7773 81.7209 75.7775 81.6791 75.7755L81.594 75.0572C81.4343 75.1562 81.3179 75.2898 81.1836 75.3949C80.9552 75.5747 80.7627 75.8372 80.4239 75.6853Z" fill="#EE252C"/>
<path d="M80.2627 38.8204C80.3986 38.5205 80.6015 38.228 80.3687 37.8007C80.2075 37.8793 80.0359 37.928 79.909 38.0311C79.7194 38.1829 79.5642 38.3743 79.3911 38.5468C79.0792 38.8598 78.7284 38.9384 78.3284 38.7304C78.1269 38.4137 78.2806 38.1417 78.412 37.8758C78.7299 37.2401 79.0612 36.6102 79.3851 35.9767C79.4448 35.8586 79.4926 35.7368 79.5598 35.6244C80.1478 34.6307 80.1269 33.6671 79.3956 32.7564C78.8717 32.1002 78.3568 31.431 77.7747 30.8292C76.6508 29.6707 75.4851 30.0456 74.5389 30.861C73.9 31.4102 73.4642 32.1075 73.0687 32.8311C72.8254 33.2755 72.5806 33.7217 72.3821 34.1846C71.7448 35.6787 70.7926 36.974 69.8612 38.288C69.1956 39.2271 68.5493 40.1793 67.8971 41.1374C67.8657 41.2668 67.8314 41.3772 67.7657 41.4653C67.5657 41.7316 66.7538 42.8549 65.5403 44.5404C65.5418 44.5417 65.5433 44.5429 65.5448 44.5441C66.3359 45.2426 66.6971 46.1861 66.5911 47.2726L66.5239 47.2705C67.3568 47.7637 67.906 48.8528 67.9329 50.2125L67.5866 50.2943C68.3523 50.9511 68.6224 52.2819 68.203 53.6705L68.112 53.6507L68.1657 53.9662L66.9583 53.9795L65.7418 54.0473L65.715 53.7817C65.7045 53.777 65.6941 53.7738 65.6836 53.7689C65.3045 53.9667 64.9239 54.0734 64.5702 54.1314L64.5896 54.5702C64.7344 54.5907 64.8881 54.6258 65.0493 54.6896C65.1956 54.7486 65.3403 54.8047 65.4851 54.861C66.1224 55.1083 66.7806 55.3641 67.4105 55.7531C67.9329 56.0758 68.4553 56.4035 68.9777 56.7322C69.4672 56.0532 69.903 55.4462 70.2642 54.9428C70.5911 54.2037 71.0508 53.5504 71.6403 52.9984C72.8672 51.1644 74.1314 49.3564 75.2956 47.4844C77.0523 44.6558 78.8732 41.861 80.2627 38.8204Z" fill="#EE252C"/>
<path d="M58.4045 67.0256C58.1075 66.4279 57.8552 65.7976 57.6433 65.1364L57.2388 65.6429L56.3194 65.0749L56.2896 65.0558C55.9299 65.4804 55.5732 65.9091 55.2224 66.334L56.6224 67.3504C56.5269 67.5647 56.4344 67.7797 56.3418 67.9946C56.1403 68.4585 55.9329 68.9382 55.709 69.411C55.0269 70.8434 54.2224 72.3388 52.9627 73.5686C52.8791 73.6513 52.7911 73.7346 52.7 73.8173L52.6314 74.1032C52.4344 74.9206 51.8717 75.4815 51.0433 75.6824C50.5747 75.7964 50.1075 75.8543 49.6523 75.8543C49.4971 75.8543 49.3418 75.8476 49.1866 75.834C48.109 76.4065 46.7075 76.7209 45.2224 76.7209C44.6105 76.7209 44.0015 76.6697 43.403 76.5698L43.5314 77.0737L42.4702 77.4218C42.3 77.4779 42.1299 77.5379 41.9597 77.598C41.8075 77.6512 41.6538 77.7044 41.4985 77.7568C41.3985 77.8835 41.2985 78.0101 41.2 78.1373C40.2105 79.4064 39.2135 80.6661 38.2403 81.9462C37.9254 82.3626 37.6553 82.8161 37.4045 83.2755C37.2135 83.6279 37.106 84.014 37.4567 84.4021C37.8314 84.4715 38.1448 84.3083 38.4553 84.1489C38.4553 84.1489 38.4747 84.1395 38.506 84.1246C38.7926 83.9897 40.1761 83.3934 39.7672 84.7731C39.7508 84.8182 39.7344 84.8631 39.7179 84.908C39.6403 85.1162 39.5627 85.3262 39.506 85.5379C39.3791 85.9992 39.4075 86.451 39.8284 86.7582C40.206 87.0338 40.6269 87.047 41.0418 86.8034C41.1388 86.7489 41.2463 86.717 41.3343 86.6815C41.7403 86.8876 41.8582 87.0656 41.7642 87.5364C41.6687 88.0124 41.5269 88.481 41.3627 88.9365C41.1433 89.5495 41.2642 90.065 41.6896 90.5449C42.1612 91.0792 42.5941 91.1729 43.1582 90.7379C43.5075 90.468 43.8075 90.1232 44.0926 89.7782C44.709 89.0285 45.303 88.2618 45.9015 87.4949C46.1418 87.1877 46.4075 86.8876 46.5881 86.5465C47.2209 85.3412 48.1075 84.327 48.9642 83.2847C50.7941 81.0597 52.6612 78.8626 54.4254 76.5871C55.7179 74.9168 56.8567 73.1286 58.0941 71.4134C58.4717 70.8892 58.8732 70.3807 59.2866 69.8826C58.912 69.1853 58.6508 68.5419 58.5702 68.0474L58.4045 67.0256Z" fill="#EE252C"/>
<path d="M65.3075 44.3598L65.4134 44.1004L65.4582 44.474C65.4851 44.4963 65.5134 44.517 65.5403 44.5404C66.7537 42.8549 67.5672 41.7318 67.7657 41.4655C67.8313 41.3773 67.8657 41.2668 67.897 41.1374C68.5493 40.1795 69.1955 39.2273 69.8612 38.2882C70.7925 36.9742 71.7448 35.6788 72.3821 34.1846C72.5806 33.7218 72.8254 33.2757 73.0687 32.8312C73.4642 32.1076 73.9 31.4103 74.5388 30.861C75.4851 30.0458 76.6507 29.6709 77.7746 30.8292C78.3567 31.431 78.8716 32.1003 79.3955 32.7564C80.1269 33.6673 80.1478 34.6309 79.5597 35.6245C79.4925 35.7368 79.4448 35.8586 79.3851 35.9767C79.0612 36.6103 78.7298 37.2401 78.4119 37.8758C78.2806 38.1419 78.1269 38.4137 78.3284 38.7306C78.7284 38.9385 79.0791 38.8598 79.3911 38.5468C79.5642 38.3743 79.7194 38.1831 79.909 38.0312C80.0358 37.9282 80.2075 37.8794 80.3687 37.8009C80.6015 38.228 80.3985 38.5206 80.2627 38.8204C78.8731 41.861 77.0522 44.6559 75.2955 47.4846C74.1313 49.3564 72.8672 51.1646 71.6403 52.9986C71.6418 52.9976 71.6418 52.9965 71.6433 52.9956C72.1716 52.5037 72.7478 52.1498 73.3672 51.9261C73.4642 51.7073 73.5642 51.4901 73.6731 51.2788C73.803 51.0312 74.0119 50.7558 74.2552 50.6489C74.8955 50.3658 75.2911 49.8634 75.6433 49.3086C76.3836 48.1462 77.097 46.9673 77.8343 45.8031C78.9851 43.9924 80.1358 42.1815 81.0925 40.2562C81.4313 39.5703 81.6358 38.8616 81.4134 38.0819C80.8612 37.6113 80.6985 37.0264 80.9015 36.3254C81.0463 35.8231 81.1701 35.3151 81.2881 34.8052C81.4507 34.0798 81.3418 33.3957 80.9328 32.7658C80.7284 32.4527 80.5627 32.1058 80.3179 31.8285C79.8493 31.2979 79.3507 30.7898 78.6612 30.5276C78.4015 30.43 78.1313 30.3307 77.9104 30.1695C76.6507 29.2434 75.3687 29.5601 74.306 30.4207C73.4687 31.101 72.9478 32.0234 72.4731 32.9512C71.2612 35.3264 69.8209 37.5515 68.2746 39.7183C67.8269 40.3464 67.4075 40.9968 66.988 41.6436C66.9866 41.6454 66.9851 41.6473 66.9851 41.6491C66.6537 42.0783 66.0075 42.9506 65.1254 44.1539C65.1269 44.1858 65.1284 44.2179 65.1298 44.2466C65.191 44.2813 65.2493 44.3192 65.3075 44.3598Z" fill="white"/>
<path d="M74.1432 69.1558C74.1074 69.1575 74.0597 69.1597 74.0194 69.1624C73.9656 69.1994 73.9119 69.2375 73.8582 69.2749C73.6074 69.4514 73.3 69.6624 72.9298 69.8087C72.9373 69.8249 72.9447 69.8418 72.9507 69.8578H74.2582C74.3104 69.7896 74.3626 69.7197 74.4164 69.6481L74.4492 69.6034C74.3925 69.4811 74.3209 69.3302 74.2343 69.1508C74.2044 69.1522 74.1731 69.1545 74.1432 69.1558Z" fill="white"/>
<path d="M49.3493 44.3594C49.3105 44.277 49.2747 44.199 49.2433 44.1312C47.9762 41.3569 46.7374 38.5673 45.4821 35.7875C45.3433 35.482 45.1687 35.1894 45.0404 34.8802C44.8687 34.4621 44.9583 34.1623 45.2657 34.003C45.6314 33.8155 45.9777 33.9242 46.1956 34.3517C46.3389 34.6309 46.3956 34.9515 46.518 35.2437C46.606 35.4537 46.7359 35.647 46.9224 35.9826C47.118 35.7069 47.2777 35.572 47.3165 35.407C47.3956 35.0808 47.406 34.7397 47.4463 34.406C47.5448 33.5511 47.6165 32.6926 47.7508 31.8434C47.8284 31.3449 48.0941 31.1199 48.4598 31.0993C48.9284 31.0711 49.2926 31.2997 49.4717 31.7422C49.5359 31.8978 49.5508 32.0927 49.6553 32.2072C49.7971 32.359 50.0045 32.5427 50.1821 32.5408C50.3568 32.539 50.6165 32.359 50.6866 32.1921C50.8403 31.8378 50.8986 31.4405 50.9926 31.0599C51.0941 30.6437 51.1448 30.207 51.3 29.8114C51.6583 28.9079 52.9568 28.6717 53.6299 29.3821C53.8433 29.609 54.009 29.8957 54.1389 30.1826C54.8568 31.7479 55.5747 33.313 56.2538 34.8951C56.5627 35.6115 57.8717 38.3678 59.6448 42.074C60.0389 41.8931 60.4463 41.7272 60.8687 41.5658C59.7523 39.2548 58.9986 37.687 58.8806 37.4145C57.9702 35.3076 57.0702 33.193 56.1105 31.1067C55.8433 30.5294 55.5254 29.9276 54.9448 29.5602C54.6777 29.3934 54.406 29.234 54.1299 29.0805C53.8075 28.8985 53.4986 28.6342 53.1523 28.5667C52.0418 28.3493 51.1851 28.5612 50.7791 29.8376C50.6538 30.2294 50.5463 30.6269 50.4195 31.0187C50.3478 31.236 50.2523 31.446 50.1493 31.7067C49.9389 31.4366 49.8 31.2381 49.6374 31.0579C48.9538 30.2914 47.7598 30.4843 47.3896 31.4328C47.2702 31.744 47.2045 32.0796 47.1493 32.4096C47.0448 33.047 46.9657 33.6879 46.8612 34.434C46.7075 34.1999 46.6284 34.0554 46.5269 33.9297C46.1866 33.5043 45.5926 33.3449 45.112 33.5399C44.7015 33.7049 44.4284 34.1134 44.4732 34.5654C44.4956 34.7827 44.5762 35.002 44.6672 35.2026C45.1986 36.3593 45.7508 37.5064 46.2777 38.6649C46.8598 39.9428 47.9493 42.2472 49.2971 45.0723C49.2866 44.8294 49.303 44.5903 49.3493 44.3594Z" fill="white"/>
<path d="M80.5314 74.9392C80.3896 75.1586 80.2403 75.3855 80.4239 75.6853C80.7627 75.8371 80.9553 75.5747 81.1836 75.3947C81.318 75.2897 81.4344 75.1562 81.5941 75.0573L81.4881 74.1932C81.2702 74.3073 81.0448 74.4144 80.8135 74.5152C80.7179 74.6556 80.6254 74.7965 80.5314 74.9392Z" fill="white"/>
<path d="M79.0433 75.1348C78.903 75.1718 78.7582 75.2024 78.6164 75.236C78.7627 75.2627 78.9089 75.2167 79.0433 75.1348Z" fill="white"/>
<path d="M69.697 57.1865C69.7298 56.5487 69.888 55.9797 70.0358 55.5344C70.1015 55.3309 70.1791 55.1348 70.2642 54.9429C69.903 55.4465 69.4672 56.0533 68.9776 56.7324C69.2179 56.8836 69.4582 57.0347 69.697 57.1865Z" fill="white"/>
<path d="M59.4985 70.7927L59.7851 70.7342C59.603 70.4456 59.4358 70.16 59.2866 69.8826C58.8731 70.3808 58.4716 70.8891 58.094 71.4133C56.8567 73.1285 55.7179 74.9169 54.4254 76.587C52.6612 78.8627 50.794 81.0597 48.9642 83.2848C48.1075 84.327 47.2209 85.3411 46.5881 86.5465C46.4075 86.8876 46.1418 87.1876 45.9015 87.495C45.303 88.2617 44.709 89.0285 44.0925 89.7781C43.8075 90.1232 43.5075 90.4681 43.1582 90.7379C42.594 91.173 42.1612 91.0793 41.6895 90.545C41.2642 90.0651 41.1433 89.5494 41.3627 88.9366C41.5269 88.4811 41.6686 88.0124 41.7642 87.5363C41.8582 87.0657 41.7403 86.8876 41.3343 86.6814C41.2462 86.717 41.1373 86.7488 41.0418 86.8035C40.6269 87.047 40.206 87.0339 39.8268 86.7582C39.4074 86.4509 39.3791 85.9993 39.5045 85.5379C39.5627 85.3262 39.6403 85.1163 39.7164 84.9081C39.7343 84.8632 39.7507 84.8181 39.7671 84.7732C40.1761 83.3935 38.7925 83.9897 38.506 84.1247C38.4746 84.1396 38.4552 84.1488 38.4552 84.1488C38.1448 84.3082 37.8313 84.4715 37.4567 84.402C37.106 84.0139 37.2119 83.6279 37.4045 83.2754C37.6552 82.8162 37.9254 82.3626 38.2403 81.9463C39.2134 80.6661 40.2104 79.4065 41.2 78.1373C41.2985 78.0102 41.3985 77.8836 41.4985 77.7569C41.2224 77.8491 40.9403 77.9375 40.6418 78.0084C40.6015 78.0181 40.5597 78.0229 40.5179 78.0303C39.8209 78.9826 39.3194 79.6635 39.0672 79.9951C38.288 81.0185 37.6179 82.1282 36.9328 83.2211C36.6433 83.686 36.6746 84.2035 37.0418 84.6345C37.4 85.0562 37.8507 84.9194 38.2881 84.7714C38.5776 84.6739 38.8686 84.5857 39.2582 84.4602C39.1507 84.9194 39.0597 85.2587 38.994 85.6018C38.7836 86.717 39.6552 87.6169 40.7657 87.4406C40.8866 87.422 41.0104 87.4163 41.1582 87.4032C41.1686 87.5139 41.1925 87.5906 41.1776 87.6562C41.0716 88.1099 40.9657 88.5654 40.8433 89.0172C40.7298 89.4484 40.697 89.8739 40.9448 90.2656C41.8657 91.7202 42.5478 91.8665 43.9015 90.8656C44.0955 90.723 44.2821 90.4718 44.4866 90.453C45.0582 90.4044 45.394 90.0163 45.6895 89.6488C46.7269 88.3499 47.6955 86.9982 48.7209 85.6897C50.0552 83.9839 51.4194 82.2987 52.7731 80.6079C53.0657 80.2442 53.3716 79.8882 53.6612 79.5226C54.2418 78.7915 54.8298 78.0662 55.3895 77.32C56.4194 75.9441 57.491 74.5945 58.4313 73.1584C58.906 72.4323 59.4477 71.7673 60.0104 71.0829C59.9851 71.043 59.9582 71.0032 59.9328 70.9635L59.4985 70.7927Z" fill="white"/>
<path d="M81.9806 75.7825C81.9224 75.7825 81.8627 75.7798 81.8044 75.7785C81.6955 75.9521 81.5761 76.12 81.4492 76.2795C79.3433 78.9058 76.9686 81.2583 74.2462 83.2473C73.8641 83.5265 73.403 83.7665 72.9433 83.8621C70.7597 84.3121 69.5761 83.9052 68.3403 82.188C68.0671 81.8095 67.8179 81.4101 67.597 80.9995C66.4955 78.958 65.397 76.9134 64.3 74.8688L64.1477 75.1285C64.0403 75.0971 63.9283 75.0519 63.8134 74.9971C64.7686 76.7691 65.7224 78.5413 66.6866 80.308C67.2492 81.3389 67.7716 82.4018 68.6149 83.2567C69.2403 83.8883 69.9239 84.3795 70.8358 84.447C71.9224 84.5295 73.0089 84.6137 74.0194 84.0627C74.4134 83.8489 74.8194 83.6615 75.2194 83.4591C75.6134 83.2567 76.0597 83.1104 76.3985 82.8347C78.0239 81.5152 79.5806 80.1147 81.0089 78.5797C81.7119 77.8279 82.4283 77.0931 82.9388 76.1858C83.0313 76.0213 83.1104 75.8509 83.1656 75.6776C82.7641 75.7464 82.3701 75.7825 81.9806 75.7825Z" fill="white"/>
<path d="M55.506 50.4634C55.3 50.6531 55.1149 50.824 54.8851 51.0362C55.4328 51.305 55.9194 51.544 56.4836 51.8213C56.2836 51.2061 55.9463 50.8183 55.506 50.4634Z" fill="white"/>
</svg>
